<svg xmlns="http://www.w3.org/2000/svg" xmlns:xlink="http://www.w3.org/1999/xlink" viewBox="0 0 301.91 273.75"><defs><style>.cls-1{isolation:isolate;}.cls-122,.cls-2,.cls-21,.cls-91{opacity:0.5;}.cls-102,.cls-106,.cls-114,.cls-121,.cls-128,.cls-2,.cls-20,.cls-21,.cls-27,.cls-28,.cls-31,.cls-32,.cls-88,.cls-91,.cls-92,.cls-96,.cls-97,.cls-98{mix-blend-mode:color-dodge;}.cls-2{fill:url(#radial-gradient);}.cls-100,.cls-101,.cls-115,.cls-123,.cls-3,.cls-4{opacity:0.2;}.cls-3{fill:url(#linear-gradient);}.cls-5{opacity:0;}.cls-6{opacity:0.09;}.cls-7{opacity:0.18;}.cls-8{opacity:0.27;}.cls-9{opacity:0.36;}.cls-10{opacity:0.45;}.cls-11{opacity:0.55;}.cls-12{opacity:0.64;}.cls-13{opacity:0.73;}.cls-14{opacity:0.82;}.cls-15{opacity:0.91;}.cls-16{fill:url(#linear-gradient-2);}.cls-17{fill:url(#linear-gradient-3);}.cls-18{opacity:0.82;fill:url(#linear-gradient-4);}.cls-103,.cls-115,.cls-116,.cls-118,.cls-18,.cls-24,.cls-70,.cls-78{mix-blend-mode:multiply;}.cls-19,.cls-26{opacity:0.6;}.cls-117,.cls-120,.cls-122,.cls-123,.cls-124,.cls-129,.cls-19,.cls-26,.cls-29,.cls-30,.cls-33,.cls-38,.cls-42,.cls-47,.cls-51,.cls-55,.cls-59{mix-blend-mode:screen;}.cls-19{fill:url(#radial-gradient-2);}.cls-20{fill:url(#radial-gradient-3);}.cls-21{fill:url(#radial-gradient-4);}.cls-22{fill:url(#linear-gradient-5);}.cls-23{fill:url(#linear-gradient-6);}.cls-24{fill:#bcbec0;}.cls-25{fill:url(#linear-gradient-7);}.cls-26{fill:url(#radial-gradient-5);}.cls-27{fill:url(#radial-gradient-6);}.cls-28{fill:url(#radial-gradient-7);}.cls-29{fill:url(#radial-gradient-8);}.cls-30{fill:url(#radial-gradient-9);}.cls-31{fill:url(#radial-gradient-10);}.cls-32{fill:url(#radial-gradient-11);}.cls-33{fill:url(#linear-gradient-8);}.cls-34{opacity:0.9;}.cls-35{fill:url(#linear-gradient-9);}.cls-36{fill:url(#linear-gradient-10);}.cls-37{fill:url(#linear-gradient-11);}.cls-38{fill:url(#linear-gradient-12);}.cls-39{fill:url(#linear-gradient-13);}.cls-40{fill:url(#linear-gradient-14);}.cls-41{fill:url(#linear-gradient-15);}.cls-42{fill:url(#linear-gradient-16);}.cls-43{fill:url(#linear-gradient-17);}.cls-44{fill:url(#linear-gradient-18);}.cls-45{fill:url(#linear-gradient-19);}.cls-46{fill:#fff;}.cls-47{fill:url(#linear-gradient-20);}.cls-48{fill:url(#linear-gradient-21);}.cls-49{fill:url(#linear-gradient-22);}.cls-50{fill:url(#linear-gradient-23);}.cls-51{fill:url(#linear-gradient-24);}.cls-52{fill:url(#linear-gradient-25);}.cls-53{fill:url(#linear-gradient-26);}.cls-54{fill:url(#linear-gradient-27);}.cls-55{fill:url(#linear-gradient-28);}.cls-56{fill:url(#linear-gradient-29);}.cls-57{fill:url(#linear-gradient-30);}.cls-58{fill:url(#linear-gradient-31);}.cls-59{fill:url(#linear-gradient-32);}.cls-60{fill:url(#linear-gradient-33);}.cls-61{fill:url(#linear-gradient-34);}.cls-62{fill:url(#linear-gradient-35);}.cls-63{fill:url(#linear-gradient-36);}.cls-64{fill:#138bbd;}.cls-65{fill:#18a0ca;}.cls-66{fill:#1cb6d7;}.cls-67{fill:#21cbe5;}.cls-68{fill:#25e1f2;}.cls-69{fill:#2af6ff;}.cls-70{fill:url(#linear-gradient-37);}.cls-71{fill:url(#linear-gradient-38);}.cls-72{fill:#9f19ab;}.cls-73{fill:#b228b2;}.cls-74{fill:#c537b9;}.cls-75{fill:#d945c0;}.cls-76{fill:#ec54c7;}.cls-77{fill:#ff63ce;}.cls-78{fill:url(#linear-gradient-39);}.cls-79{fill:url(#linear-gradient-40);}.cls-80{fill:#ffba78;}.cls-81{fill:#ffc281;}.cls-82{fill:#ffcb8b;}.cls-83{fill:#ffd394;}.cls-84{fill:#ffdc9e;}.cls-85{fill:#ffe4a7;}.cls-86{fill:url(#linear-gradient-41);}.cls-87{fill:url(#linear-gradient-42);}.cls-88{fill:url(#radial-gradient-12);}.cls-89{fill:#1f0d3d;}.cls-90{fill:url(#linear-gradient-43);}.cls-91{fill:url(#radial-gradient-13);}.cls-92{fill:url(#radial-gradient-14);}.cls-93{fill:#25054d;}.cls-94{fill:url(#linear-gradient-44);}.cls-95{fill:url(#linear-gradient-45);}.cls-96{fill:url(#radial-gradient-15);}.cls-97{fill:url(#radial-gradient-16);}.cls-98{fill:url(#radial-gradient-17);}.cls-99{fill:url(#linear-gradient-46);}.cls-100{fill:url(#linear-gradient-47);}.cls-101{fill:url(#linear-gradient-48);}.cls-102{fill:url(#radial-gradient-18);}.cls-103{fill:#e6e7e8;}.cls-104{fill:url(#linear-gradient-49);}.cls-105{fill:url(#linear-gradient-50);}.cls-106{fill:url(#radial-gradient-19);}.cls-107{fill:#ff5fff;}.cls-108{fill:url(#radial-gradient-20);}.cls-109{fill:url(#linear-gradient-51);}.cls-110{fill:url(#linear-gradient-52);}.cls-111{fill:url(#linear-gradient-53);}.cls-112{fill:url(#linear-gradient-54);}.cls-113{fill:url(#linear-gradient-55);}.cls-114{fill:url(#radial-gradient-21);}.cls-115{fill:url(#radial-gradient-22);}.cls-116{opacity:0.3;fill:url(#radial-gradient-23);}.cls-117{fill:url(#radial-gradient-24);}.cls-118{fill:#939598;}.cls-119{fill:url(#linear-gradient-56);}.cls-120{fill:#58595b;}.cls-121{fill:url(#radial-gradient-25);}.cls-122{fill:url(#radial-gradient-26);}.cls-123{fill:url(#radial-gradient-27);}.cls-124{fill:url(#linear-gradient-57);}.cls-125{fill:url(#linear-gradient-58);}.cls-126{fill:url(#linear-gradient-59);}.cls-127{fill:url(#linear-gradient-60);}.cls-128{fill:url(#radial-gradient-28);}.cls-129{fill:url(#radial-gradient-29);}</style><radialGradient id="radial-gradient" cx="95.03" cy="93.77" r="139.9" gradientTransform="matrix(-0.96, 0, 0, 0.98, 225.36, 45.13)" gradientUnits="userSpaceOnUse"><stop offset="0" stop-color="#fa45c1"/><stop offset="0.21" stop-color="#cb389d"/><stop offset="0.67" stop-color="#571843"/><stop offset="1"/></radialGradient><linearGradient id="linear-gradient" x1="173.73" y1="212.75" x2="270.98" y2="212.75" gradientTransform="matrix(-1, 0, 0, 1, 371.76, 0)" gradientUnits="userSpaceOnUse"><stop offset="0.06" stop-color="#200041"/><stop offset="0.26" stop-color="#210243"/><stop offset="0.36" stop-color="#25084b"/><stop offset="0.43" stop-color="#2c1358"/><stop offset="0.47" stop-color="#311b61"/><stop offset="0.48" stop-color="#351f65"/><stop offset="0.5" stop-color="#422c73"/><stop offset="0.51" stop-color="#584188"/><stop offset="0.52" stop-color="#765fa7"/><stop offset="0.53" stop-color="#8770b8"/><stop offset="0.54" stop-color="#7e67ae"/><stop offset="0.56" stop-color="#5c468d"/><stop offset="0.59" stop-color="#442e75"/><stop offset="0.61" stop-color="#362066"/><stop offset="0.63" stop-color="#311b61"/><stop offset="0.67" stop-color="#2a1155"/><stop offset="0.75" stop-color="#230446"/><stop offset="0.81" stop-color="#200041"/><stop offset="1" stop-color="#200041"/></linearGradient><linearGradient id="linear-gradient-2" x1="173.73" y1="197.92" x2="270.98" y2="197.92" xlink:href="#linear-gradient"/><linearGradient id="linear-gradient-3" x1="199.76" y1="204.17" x2="243.84" y2="179.78" gradientTransform="matrix(-1, 0, 0, 1, 371.76, 0)" gradientUnits="userSpaceOnUse"><stop offset="0" stop-color="#311b61"/><stop offset="0.2" stop-color="#290f52"/><stop offset="0.49" stop-color="#200041"/><stop offset="1" stop-color="#0f001f"/></linearGradient><linearGradient id="linear-gradient-4" x1="223.14" y1="192.64" x2="231.79" y2="178.13" gradientTransform="matrix(-1, 0, 0, 1, 371.76, 0)" gradientUnits="userSpaceOnUse"><stop offset="0" stop-color="#fff"/><stop offset="1"/></linearGradient><radialGradient id="radial-gradient-2" cx="223.42" cy="212.36" r="34.6" gradientTransform="matrix(-1, 0, 0, 1, 371.76, 0)" gradientUnits="userSpaceOnUse"><stop offset="0" stop-color="#af8afc"/><stop offset="1" stop-color="#10054d"/></radialGradient><radialGradient id="radial-gradient-3" cx="-1167.02" cy="-941.17" r="24.31" gradientTransform="matrix(0, -0.57, -0.66, 0, -481.27, -439.73)" gradientUnits="userSpaceOnUse"><stop offset="0" stop-color="#972a74"/><stop offset="0.04" stop-color="#8a266a"/><stop offset="0.19" stop-color="#601b4a"/><stop offset="0.35" stop-color="#3d112f"/><stop offset="0.51" stop-color="#230a1b"/><stop offset="0.67" stop-color="#0f040c"/><stop offset="0.83" stop-color="#040103"/><stop offset="1"/></radialGradient><radialGradient id="radial-gradient-4" cx="-645.45" cy="-1777.64" r="55.22" gradientTransform="matrix(-1.08, 0, 0, 0.44, -541.77, 995.94)" gradientUnits="userSpaceOnUse"><stop offset="0" stop-color="#4f18ad"/><stop offset="0.29" stop-color="#3a127f"/><stop offset="0.94" stop-color="#05010a"/><stop offset="1"/></radialGradient><linearGradient id="linear-gradient-5" x1="294.5" y1="221.3" x2="145.68" y2="15.36" xlink:href="#linear-gradient-3"/><linearGradient id="linear-gradient-6" x1="165.81" y1="35.87" x2="292.42" y2="226.27" gradientTransform="matrix(-1, 0, 0, 1, 371.76, 0)" gradientUnits="userSpaceOnUse"><stop offset="0.01" stop-color="#9f19ab"/><stop offset="0.43" stop-color="#5f27bd"/><stop offset="0.9" stop-color="#3d065f"/></linearGradient><linearGradient id="linear-gradient-7" x1="326.12" y1="225.77" x2="208.98" y2="38.6" xlink:href="#linear-gradient"/><radialGradient id="radial-gradient-5" cx="292.89" cy="119.18" r="19.94" xlink:href="#radial-gradient-2"/><radialGradient id="radial-gradient-6" cx="-1574.24" cy="-1063.96" r="24.31" gradientTransform="matrix(0, -0.52, -0.66, 0, -628.25, -708.42)" xlink:href="#radial-gradient-3"/><radialGradient id="radial-gradient-7" cx="-1138.71" cy="-1186.92" r="67.93" gradientTransform="matrix(0, -0.64, -0.66, 0, -588.6, -658.73)" xlink:href="#radial-gradient-3"/><radialGradient id="radial-gradient-8" cx="276.65" cy="76.46" r="9.94" gradientTransform="matrix(-0.97, -0.26, -0.26, 0.97, 382.12, 74.45)" gradientUnits="userSpaceOnUse"><stop offset="0.09" stop-color="#c211a1"/><stop offset="0.09" stop-color="#b9109b"/><stop offset="0.13" stop-color="#5b0663"/><stop offset="0.15" stop-color="#510558"/><stop offset="0.21" stop-color="#38043d"/><stop offset="0.29" stop-color="#230226"/><stop offset="0.37" stop-color="#130115"/><stop offset="0.48" stop-color="#080109"/><stop offset="0.62" stop-color="#020002"/><stop offset="1"/></radialGradient><radialGradient id="radial-gradient-9" cx="227.62" cy="236.36" r="9.94" gradientTransform="matrix(-0.97, -0.23, -0.23, 0.97, 420.24, 59.03)" xlink:href="#radial-gradient-8"/><radialGradient id="radial-gradient-10" cx="259.32" cy="98.25" r="79.76" gradientTransform="matrix(-1, 0, 0, 1, 371.76, 0)" xlink:href="#radial-gradient"/><radialGradient id="radial-gradient-11" cx="226.36" cy="219.84" r="32.82" gradientTransform="matrix(-1, 0, 0, 1, 371.76, 0)" xlink:href="#radial-gradient"/><linearGradient id="linear-gradient-8" x1="155.37" y1="146.22" x2="175.12" y2="132.9" gradientTransform="matrix(-1, 0, 0, 1, 371.76, 0)" gradientUnits="userSpaceOnUse"><stop offset="0" stop-color="#fdd65b"/><stop offset="0.01" stop-color="#f7d159"/><stop offset="0.13" stop-color="#bea144"/><stop offset="0.25" stop-color="#8b7632"/><stop offset="0.37" stop-color="#605223"/><stop offset="0.49" stop-color="#3e3416"/><stop offset="0.62" stop-color="#231d0c"/><stop offset="0.74" stop-color="#0f0d05"/><stop offset="0.87" stop-color="#040301"/><stop offset="1"/></linearGradient><linearGradient id="linear-gradient-9" x1="162.63" y1="148.65" x2="183.12" y2="142.51" gradientTransform="matrix(-1, 0, 0, 1, 371.76, 0)" gradientUnits="userSpaceOnUse"><stop offset="0.04" stop-color="#ffa98c"/><stop offset="0.32" stop-color="#ffb892"/><stop offset="0.86" stop-color="#fee1a3"/><stop offset="1" stop-color="#feeca8"/></linearGradient><linearGradient id="linear-gradient-10" x1="131.43" y1="151.2" x2="178.36" y2="140.68" xlink:href="#linear-gradient-9"/><linearGradient id="linear-gradient-11" x1="164.27" y1="123.86" x2="156.92" y2="137.86" xlink:href="#linear-gradient-9"/><linearGradient id="linear-gradient-12" x1="155.37" y1="126.96" x2="175.12" y2="113.63" xlink:href="#linear-gradient-8"/><linearGradient id="linear-gradient-13" x1="162.63" y1="129.38" x2="183.12" y2="123.25" xlink:href="#linear-gradient-9"/><linearGradient id="linear-gradient-14" x1="131.43" y1="131.94" x2="178.36" y2="121.42" xlink:href="#linear-gradient-9"/><linearGradient id="linear-gradient-15" x1="164.27" y1="104.6" x2="156.92" y2="118.6" xlink:href="#linear-gradient-9"/><linearGradient id="linear-gradient-16" x1="155.37" y1="107.51" x2="175.12" y2="94.19" xlink:href="#linear-gradient-8"/><linearGradient id="linear-gradient-17" x1="162.63" y1="109.94" x2="183.12" y2="103.8" xlink:href="#linear-gradient-9"/><linearGradient id="linear-gradient-18" x1="131.43" y1="112.49" x2="178.36" y2="101.97" xlink:href="#linear-gradient-9"/><linearGradient id="linear-gradient-19" x1="164.27" y1="85.15" x2="156.92" y2="99.16" xlink:href="#linear-gradient-9"/><linearGradient id="linear-gradient-20" x1="268.49" y1="186.07" x2="288.23" y2="172.74" gradientTransform="matrix(-1, 0, 0, 1, 371.76, 0)" gradientUnits="userSpaceOnUse"><stop offset="0" stop-color="#2af6ff"/><stop offset="0.02" stop-color="#29eef7"/><stop offset="0.13" stop-color="#1fb7be"/><stop offset="0.25" stop-color="#17868b"/><stop offset="0.37" stop-color="#105d60"/><stop offset="0.49" stop-color="#0a3b3e"/><stop offset="0.62" stop-color="#062123"/><stop offset="0.74" stop-color="#030f0f"/><stop offset="0.87" stop-color="#010404"/><stop offset="1"/></linearGradient><linearGradient id="linear-gradient-21" x1="275.74" y1="188.49" x2="296.23" y2="182.36" gradientTransform="matrix(-1, 0, 0, 1, 371.76, 0)" gradientUnits="userSpaceOnUse"><stop offset="0.04" stop-color="#138bbd"/><stop offset="0.23" stop-color="#169ac7"/><stop offset="0.59" stop-color="#1fc3df"/><stop offset="1" stop-color="#2af6ff"/></linearGradient><linearGradient id="linear-gradient-22" x1="244.54" y1="191.05" x2="291.47" y2="180.52" xlink:href="#linear-gradient-21"/><linearGradient id="linear-gradient-23" x1="277.38" y1="163.71" x2="270.03" y2="177.71" xlink:href="#linear-gradient-21"/><linearGradient id="linear-gradient-24" x1="268.49" y1="159.52" x2="288.23" y2="146.19" gradientTransform="matrix(-1, 0, 0, 1, 371.76, 0)" gradientUnits="userSpaceOnUse"><stop offset="0" stop-color="#c211a1"/><stop offset="0.01" stop-color="#bd119d"/><stop offset="0.15" stop-color="#8b0c73"/><stop offset="0.29" stop-color="#600850"/><stop offset="0.42" stop-color="#3e0533"/><stop offset="0.56" stop-color="#23031d"/><stop offset="0.7" stop-color="#0f010d"/><stop offset="0.85" stop-color="#040003"/><stop offset="1"/></linearGradient><linearGradient id="linear-gradient-25" x1="275.74" y1="161.95" x2="296.23" y2="155.81" gradientTransform="matrix(-1, 0, 0, 1, 371.76, 0)" gradientUnits="userSpaceOnUse"><stop offset="0.04" stop-color="#9f19ab"/><stop offset="0.24" stop-color="#ae25b1"/><stop offset="0.65" stop-color="#d744bf"/><stop offset="1" stop-color="#ff63ce"/></linearGradient><linearGradient id="linear-gradient-26" x1="244.54" y1="164.5" x2="291.47" y2="153.98" xlink:href="#linear-gradient-25"/><linearGradient id="linear-gradient-27" x1="277.38" y1="137.16" x2="270.03" y2="151.16" xlink:href="#linear-gradient-25"/><linearGradient id="linear-gradient-28" x1="268.49" y1="139.76" x2="288.23" y2="126.43" xlink:href="#linear-gradient-24"/><linearGradient id="linear-gradient-29" x1="275.74" y1="142.18" x2="296.23" y2="136.05" xlink:href="#linear-gradient-25"/><linearGradient id="linear-gradient-30" x1="244.54" y1="144.73" x2="291.47" y2="134.21" xlink:href="#linear-gradient-25"/><linearGradient id="linear-gradient-31" x1="277.38" y1="117.4" x2="270.03" y2="131.4" xlink:href="#linear-gradient-25"/><linearGradient id="linear-gradient-32" x1="268.49" y1="119.52" x2="288.23" y2="106.19" xlink:href="#linear-gradient-24"/><linearGradient id="linear-gradient-33" x1="275.74" y1="121.94" x2="296.23" y2="115.81" xlink:href="#linear-gradient-25"/><linearGradient id="linear-gradient-34" x1="244.54" y1="124.5" x2="291.47" y2="113.98" xlink:href="#linear-gradient-25"/><linearGradient id="linear-gradient-35" x1="277.38" y1="97.16" x2="270.03" y2="111.16" xlink:href="#linear-gradient-25"/><linearGradient id="linear-gradient-36" x1="-1895.45" y1="2892.09" x2="-1893.35" y2="2874.7" gradientTransform="matrix(-0.87, 0.5, 1, 0.58, -4310.77, -491.34)" gradientUnits="userSpaceOnUse"><stop offset="0.03" stop-color="#d4d1d8"/><stop offset="1" stop-color="#eeebf2"/></linearGradient><linearGradient id="linear-gradient-37" x1="-1895.5" y1="2892.17" x2="-1893.63" y2="2876.72" xlink:href="#linear-gradient-36"/><linearGradient id="linear-gradient-38" x1="-1900.05" y1="2898.02" x2="-1895.65" y2="2882.26" xlink:href="#linear-gradient-36"/><linearGradient id="linear-gradient-39" x1="-1900.37" y1="2897.93" x2="-1896.27" y2="2883.25" xlink:href="#linear-gradient-36"/><linearGradient id="linear-gradient-40" x1="-1907.31" y1="2904.68" x2="-1895.55" y2="2884.67" xlink:href="#linear-gradient-36"/><linearGradient id="linear-gradient-41" x1="1365.24" y1="204.92" x2="1475.39" y2="204.92" gradientTransform="matrix(-1, 0, 0, 1, 1645.97, 0)" xlink:href="#linear-gradient"/><linearGradient id="linear-gradient-42" x1="117.62" y1="215.86" x2="191.47" y2="162.22" xlink:href="#linear-gradient-3"/><radialGradient id="radial-gradient-12" cx="6241.17" cy="216.35" r="41.57" gradientTransform="translate(-6012.64)" xlink:href="#linear-gradient-4"/><linearGradient id="linear-gradient-43" x1="84.24" y1="200.39" x2="179.76" y2="200.39" gradientTransform="matrix(-1, 0, 0, 1, 371.76, 0)" gradientUnits="userSpaceOnUse"><stop offset="0" stop-color="#861eb2"/><stop offset="0.43" stop-color="#5f27bd"/><stop offset="0.9" stop-color="#3d065f"/></linearGradient><radialGradient id="radial-gradient-13" cx="-730.45" cy="-1706.03" r="44.58" gradientTransform="matrix(-1.08, 0, 0, 0.44, -536.57, 965.14)" xlink:href="#radial-gradient-4"/><radialGradient id="radial-gradient-14" cx="-1302.15" cy="-970.8" r="17.1" gradientTransform="matrix(-0.53, -0.22, -0.25, 0.61, -707.1, 549.07)" xlink:href="#radial-gradient-3"/><linearGradient id="linear-gradient-44" x1="160.68" y1="213.47" x2="177.04" y2="233.36" xlink:href="#linear-gradient-3"/><linearGradient id="linear-gradient-45" x1="162.25" y1="215.38" x2="186.98" y2="239.36" xlink:href="#linear-gradient-3"/><radialGradient id="radial-gradient-15" cx="8233.71" cy="220.73" r="5.32" gradientTransform="translate(-8027.48)" xlink:href="#linear-gradient-4"/><radialGradient id="radial-gradient-16" cx="8224.43" cy="213.75" r="2.46" gradientTransform="translate(-8027.48)" xlink:href="#linear-gradient-4"/><radialGradient id="radial-gradient-17" cx="8243.07" cy="224.57" r="2.46" gradientTransform="translate(-8027.48)" xlink:href="#linear-gradient-4"/><linearGradient id="linear-gradient-46" x1="8235.06" y1="222.63" x2="8232.44" y2="214.25" gradientTransform="translate(-8027.48)" xlink:href="#linear-gradient-3"/><linearGradient id="linear-gradient-47" x1="80.88" y1="220.43" x2="194.67" y2="220.43" xlink:href="#linear-gradient"/><linearGradient id="linear-gradient-48" x1="80.88" y1="213.51" x2="194.67" y2="213.51" xlink:href="#linear-gradient"/><radialGradient id="radial-gradient-18" cx="-1284.05" cy="-1071.55" r="53.34" gradientTransform="matrix(0, -0.64, -0.66, 0, -455.13, -645.52)" xlink:href="#radial-gradient-3"/><linearGradient id="linear-gradient-49" x1="212.27" y1="121.9" x2="204.66" y2="95.02" gradientTransform="matrix(-0.5, -0.86, -0.86, 0.5, 363.59, 235.17)" gradientUnits="userSpaceOnUse"><stop offset="0.04" stop-color="#ffba78"/><stop offset="0.4" stop-color="#ffc987"/><stop offset="1" stop-color="#feeca8"/></linearGradient><linearGradient id="linear-gradient-50" x1="225.52" y1="170.14" x2="206.25" y2="112.14" xlink:href="#linear-gradient-21"/><radialGradient id="radial-gradient-19" cx="236.85" cy="112.71" r="30.25" gradientTransform="matrix(-1, 0, 0, 1, 371.76, 0)" xlink:href="#radial-gradient"/><radialGradient id="radial-gradient-20" cx="2129.01" cy="5233.64" r="2.16" gradientTransform="matrix(-0.47, 0.88, 0.88, 0.47, -3360.15, -4166.95)" gradientUnits="userSpaceOnUse"><stop offset="0.1" stop-color="#8493ba"/><stop offset="0.21" stop-color="#606c90"/><stop offset="0.33" stop-color="#444d6e"/><stop offset="0.43" stop-color="#303756"/><stop offset="0.53" stop-color="#232a47"/><stop offset="0.62" stop-color="#1f2542"/><stop offset="0.71" stop-color="#242a49"/><stop offset="0.83" stop-color="#34395b"/><stop offset="0.98" stop-color="#4d5179"/><stop offset="0.98" stop-color="#4d517a"/></radialGradient><linearGradient id="linear-gradient-51" x1="2125.32" y1="5227.92" x2="2133.22" y2="5227.92" gradientTransform="matrix(-0.47, 0.88, 0.88, 0.47, -3360.15, -4166.95)" gradientUnits="userSpaceOnUse"><stop offset="0" stop-color="#7d62b8"/><stop offset="0.13" stop-color="#9039b1"/><stop offset="0.25" stop-color="#9f19ab"/><stop offset="0.29" stop-color="#89169c"/><stop offset="0.36" stop-color="#5e1080"/><stop offset="0.43" stop-color="#3c0b6a"/><stop offset="0.5" stop-color="#24085a"/><stop offset="0.56" stop-color="#150650"/><stop offset="0.62" stop-color="#10054d"/><stop offset="0.67" stop-color="#150754"/><stop offset="0.75" stop-color="#230e66"/><stop offset="0.84" stop-color="#391985"/><stop offset="0.93" stop-color="#5526ab"/><stop offset="0.96" stop-color="#4d1ba4"/><stop offset="1" stop-color="#4916a1"/></linearGradient><linearGradient id="linear-gradient-52" x1="2125.01" y1="5213.57" x2="2133.27" y2="5213.57" xlink:href="#linear-gradient-51"/><linearGradient id="linear-gradient-53" x1="3906.12" y1="3924.3" x2="3920.9" y2="3925.31" gradientTransform="matrix(0, 1, 1, 0, -3717.16, -3739.78)" gradientUnits="userSpaceOnUse"><stop offset="0" stop-color="#d6dae6"/><stop offset="0.01" stop-color="#d4d8e6"/><stop offset="0.28" stop-color="#b4b8e3"/><stop offset="0.4" stop-color="#9a9fc8"/><stop offset="0.53" stop-color="#838ab0"/><stop offset="0.65" stop-color="#757da1"/><stop offset="0.76" stop-color="#70789c"/><stop offset="0.85" stop-color="#777ea2"/><stop offset="0.99" stop-color="#898eb3"/><stop offset="1" stop-color="#8b90b5"/></linearGradient><linearGradient id="linear-gradient-54" x1="2125.05" y1="5184.35" x2="2133.03" y2="5184.35" gradientTransform="matrix(-0.47, 0.88, 0.88, 0.47, -3360.15, -4166.95)" gradientUnits="userSpaceOnUse"><stop offset="0.01" stop-color="#c1a1d5"/><stop offset="0.05" stop-color="#c8abda"/><stop offset="0.11" stop-color="#dac6e6"/><stop offset="0.2" stop-color="#f7f2f9"/><stop offset="0.22" stop-color="#fff"/><stop offset="0.25" stop-color="#f9f5fb"/><stop offset="0.3" stop-color="#e9dbf2"/><stop offset="0.36" stop-color="#d1b4e3"/><stop offset="0.43" stop-color="#b395d6"/><stop offset="0.49" stop-color="#9c7dcb"/><stop offset="0.56" stop-color="#8e6ec5"/><stop offset="0.61" stop-color="#8969c3"/><stop offset="0.76" stop-color="#9471c6"/><stop offset="1" stop-color="#b086cc"/></linearGradient><linearGradient id="linear-gradient-55" x1="3891.39" y1="3894.1" x2="3903.37" y2="3894.91" gradientTransform="matrix(0, 1, 1, 0, -3717.16, -3739.78)" xlink:href="#linear-gradient-54"/><radialGradient id="radial-gradient-21" cx="192.56" cy="157.45" r="2.52" gradientTransform="matrix(-1, 0, 0, 1, 371.76, 0)" gradientUnits="userSpaceOnUse"><stop offset="0" stop-color="#b4299a"/><stop offset="0.12" stop-color="#8a2076"/><stop offset="0.26" stop-color="#601652"/><stop offset="0.4" stop-color="#3e0e35"/><stop offset="0.55" stop-color="#23081e"/><stop offset="0.69" stop-color="#0f030d"/><stop offset="0.84" stop-color="#040103"/><stop offset="1"/></radialGradient><radialGradient id="radial-gradient-22" cx="1064.38" cy="6646.98" r="14.26" gradientTransform="matrix(-0.74, 0.68, 0.26, 0.28, -698.13, -2402.05)" gradientUnits="userSpaceOnUse"><stop offset="0"/><stop offset="1" stop-color="#fff"/></radialGradient><radialGradient id="radial-gradient-23" cx="1064.51" cy="6649.61" r="6.36" xlink:href="#radial-gradient-22"/><radialGradient id="radial-gradient-24" cx="1580.31" cy="-3034" r="8.68" gradientTransform="matrix(-1.44, -0.76, -0.1, 0.18, 2183.97, 1914.62)" gradientUnits="userSpaceOnUse"><stop offset="0" stop-color="#fff"/><stop offset="0.13" stop-color="#ff63ce"/><stop offset="1"/></radialGradient><linearGradient id="linear-gradient-56" x1="147.57" y1="178.59" x2="151.48" y2="185.47" gradientTransform="matrix(0.88, -0.48, -0.48, -0.88, 178.87, 409.91)" xlink:href="#linear-gradient-51"/><radialGradient id="radial-gradient-25" cx="150.05" cy="193.56" r="20.53" xlink:href="#radial-gradient-21"/><radialGradient id="radial-gradient-26" cx="-5599.59" cy="4866" r="5.2" gradientTransform="matrix(-0.15, 0.19, 0.78, 0.62, -4433.87, -1756.73)" gradientUnits="userSpaceOnUse"><stop offset="0" stop-color="#742a97"/><stop offset="0.04" stop-color="#6a268a"/><stop offset="0.19" stop-color="#4a1b60"/><stop offset="0.35" stop-color="#2f113d"/><stop offset="0.51" stop-color="#1b0a23"/><stop offset="0.67" stop-color="#0c040f"/><stop offset="0.83" stop-color="#030104"/><stop offset="1"/></radialGradient><radialGradient id="radial-gradient-27" cx="-3814.3" cy="6102.77" r="5.2" gradientTransform="matrix(-0.04, 0.14, 0.82, 0.25, -4940.38, -783.34)" xlink:href="#radial-gradient-26"/><linearGradient id="linear-gradient-57" x1="176.78" y1="75.23" x2="197.23" y2="51.38" gradientTransform="matrix(-1, 0, 0, 1, 371.76, 0)" gradientUnits="userSpaceOnUse"><stop offset="0" stop-color="#b086cc"/><stop offset="0.04" stop-color="#a37cbd"/><stop offset="0.17" stop-color="#785b8b"/><stop offset="0.3" stop-color="#533f60"/><stop offset="0.44" stop-color="#35283e"/><stop offset="0.57" stop-color="#1e1723"/><stop offset="0.71" stop-color="#0d0a0f"/><stop offset="0.85" stop-color="#030204"/><stop offset="1"/></linearGradient><linearGradient id="linear-gradient-58" x1="203.99" y1="86.41" x2="225.86" y2="75.81" gradientTransform="matrix(-1, 0, 0, 1, 371.76, 0)" gradientUnits="userSpaceOnUse"><stop offset="0" stop-color="#9f79c8"/><stop offset="0.14" stop-color="#a580cb"/><stop offset="0.33" stop-color="#b492d3"/><stop offset="0.55" stop-color="#cdb0e1"/><stop offset="0.58" stop-color="#d1b4e3"/><stop offset="0.76" stop-color="#dbc4e9"/><stop offset="1" stop-color="#ebdef3"/></linearGradient><linearGradient id="linear-gradient-59" x1="146.75" y1="89.7" x2="202.64" y2="52.12" xlink:href="#linear-gradient-58"/><linearGradient id="linear-gradient-60" x1="192.03" y1="39.57" x2="178.33" y2="59.59" xlink:href="#linear-gradient-58"/><radialGradient id="radial-gradient-28" cx="108.29" cy="170.39" r="32.2" gradientTransform="matrix(-1, 0, 0, 1, 371.76, 0)" xlink:href="#radial-gradient"/><radialGradient id="radial-gradient-29" cx="112.54" cy="165.28" r="9.94" gradientTransform="matrix(-0.97, -0.26, -0.26, 0.97, 410.48, 34.5)" xlink:href="#radial-gradient-8"/></defs><title>Asset 4</title><g class="cls-1"><g id="Layer_2" data-name="Layer 2"><g id="Layer_1-2" data-name="Layer 1"><ellipse class="cls-2" cx="134.2" cy="136.88" rx="134.2" ry="136.88"/><path class="cls-3" d="M109.53,196.2c0,1.31.94,2.69,2.81,3.76l26.91,25.69c3.41,2,8.56,2.18,11.51.48l49-28.44a3.35,3.35,0,0,0,2-3.11c0,.06,0,.12,0,.21v3.7a3.45,3.45,0,0,1-2,2.83l-49,28.44c-2.95,1.7-8.1,1.49-11.51-.48l-26.91-25.69c-1.89-1.09-2.85-2.49-2.82-3.81C109.52,199.55,109.49,197.12,109.53,196.2Z"/><g class="cls-4"><path class="cls-5" d="M145.76,229.29a14.12,14.12,0,0,0,7.05-1.7l49-28.44a7.47,7.47,0,0,0,4-6.45c0-2.86-1.77-5.53-4.87-7.31l-43-16.54a17.38,17.38,0,0,0-8.56-2.17,14,14,0,0,0-7,1.7l-32.92,19.28a7.45,7.45,0,0,0-4,6.44c0,2.87,1.77,5.53,4.87,7.32l26.92,25.69A17.28,17.28,0,0,0,145.76,229.29Z"/><path class="cls-6" d="M142.55,168.7,110,187.78s-.38.22-.39.23a6.78,6.78,0,0,0-3.57,6.44c.15,2.59,2.1,5.49,4.91,7.11l26.44,25.23a16.46,16.46,0,0,0,8.83,2,15,15,0,0,0,6.92-1.84l48.46-28.14a7.1,7.1,0,0,0,3.86-6.15c0-2.71-1.71-5.25-4.69-7l-42.71-16.43A17.77,17.77,0,0,0,155,168a18.3,18.3,0,0,0-5.41-.89A13.81,13.81,0,0,0,142.55,168.7Z"/><path class="cls-7" d="M142.74,169l-32.59,19.1-.39.23a6.19,6.19,0,0,0-3.09,6.44c.27,2.32,2.42,5.45,5,6.91l25.94,24.77a15.78,15.78,0,0,0,9.1,1.86,16.1,16.1,0,0,0,6.79-2l47.95-27.85a6.68,6.68,0,0,0,3.67-5.84c0-2.57-1.64-5-4.49-6.63l-42.45-16.32a20,20,0,0,0-3.06-1.31,18.35,18.35,0,0,0-5.37-1A13.53,13.53,0,0,0,142.74,169Z"/><path class="cls-8" d="M142.93,169.35,110.3,188.46s-.36.21-.39.24c-2.56,1.55-3.5,4-2.61,6.43,0,2.08,2.75,5.41,5,6.71l25.46,24.3a15.13,15.13,0,0,0,9.37,1.72,17.47,17.47,0,0,0,6.65-2.13l47.45-27.55a6.34,6.34,0,0,0,3.48-5.55c0-2.41-1.59-4.7-4.31-6.27l-42.18-16.23a22.48,22.48,0,0,0-3.05-1.28,17.88,17.88,0,0,0-5.31-1A13.28,13.28,0,0,0,142.93,169.35Z"/><path class="cls-9" d="M143.11,169.67l-32.66,19.14-.39.23c-2.55,1.58-3.31,4.09-2.13,6.43,0,1.82,3.07,5.38,5,6.51l25,23.84a14.56,14.56,0,0,0,9.63,1.56c1.71,0,5.3-1.56,6.52-2.27L201,197.85a5.93,5.93,0,0,0,3.29-5.24c0-2.27-1.52-4.43-4.12-5.93L158.3,170.56a28.35,28.35,0,0,0-3-1.27,18,18,0,0,0-5.26-1.08A12.87,12.87,0,0,0,143.11,169.67Z"/><path class="cls-10" d="M143.3,170l-32.7,19.15-.39.24c-2.55,1.6-3.13,4.15-1.65,6.42,0,1.56,3.4,5.34,5.09,6.31l24.48,23.37a14.19,14.19,0,0,0,9.9,1.41c1.47,0,5.34-1.8,6.39-2.41l46.43-27a5.58,5.58,0,0,0,3.11-4.95c-.06-2.11-1.46-4.14-3.93-5.58l-41.65-16a32.41,32.41,0,0,0-3-1.25,17.5,17.5,0,0,0-5.2-1.15A12.65,12.65,0,0,0,143.3,170Z"/><path class="cls-11" d="M143.49,170.32,110.75,189.5l-.39.24c-2.54,1.62-2.94,4.21-1.17,6.41,0,1.31,3.72,5.3,5.13,6.11l24,22.91a13.81,13.81,0,0,0,10.17,1.25c1.22,0,5.38-2,6.26-2.54l45.91-26.67a5.18,5.18,0,0,0,2.92-4.65c-.06-2-1.39-3.87-3.74-5.23l-41.38-15.92c-.43-.25-2.51-1-3-1.23a17.94,17.94,0,0,0-5.15-1.21A12.41,12.41,0,0,0,143.49,170.32Z"/><path class="cls-12" d="M143.67,170.64l-32.77,19.2-.39.24c-2.53,1.64-2.76,4.27-.69,6.42,0,1,4.05,5.25,5.17,5.9l23.52,22.45a13.48,13.48,0,0,0,10.43,1.09c1,0,5.43-2.28,6.13-2.68l45.41-26.38a4.83,4.83,0,0,0,2.73-4.34c-.08-1.82-1.33-3.6-3.56-4.89l-41.11-15.81c-.34-.2-2.6-1.06-3-1.21a17.44,17.44,0,0,0-5.1-1.28A12.3,12.3,0,0,0,143.67,170.64Z"/><path class="cls-13" d="M143.86,171l-32.8,19.22a3.85,3.85,0,0,0-.4.24c-2.53,1.66-2.57,4.33-.21,6.41,0,.78,4.37,5.22,5.21,5.71l23,22a13.25,13.25,0,0,0,10.71.94c.73,0,5.47-2.52,6-2.82l44.9-26.08a4.43,4.43,0,0,0,2.54-4.05c-.08-1.67-1.26-3.32-3.37-4.53l-40.84-15.72c-.26-.15-2.68-1.07-3-1.18a17.44,17.44,0,0,0-5-1.35A11.9,11.9,0,0,0,143.86,171Z"/><path class="cls-14" d="M144.05,171.29l-32.84,19.24-.39.24c-2.53,1.69-2.4,4.4.26,6.41,0,.52,4.69,5.18,5.26,5.51l22.54,21.51c3.23,1.86,8,2.18,11,.79a59.57,59.57,0,0,0,5.86-3l44.39-25.78a4.09,4.09,0,0,0,2.36-3.75c-.1-1.52-1.2-3.05-3.18-4.19L158.7,172.69c-.17-.1-2.77-1.09-3-1.17a17.17,17.17,0,0,0-5-1.4A11.68,11.68,0,0,0,144.05,171.29Z"/><path class="cls-15" d="M144.23,171.61l-32.87,19.27a3.68,3.68,0,0,0-.39.24c-2.52,1.71-2.22,4.46.74,6.4a71.71,71.71,0,0,0,5.3,5.31l22.06,21c3.31,1.91,8.27,2.18,11.24.63.24,0,5.55-3,5.72-3.11l43.89-25.49a3.68,3.68,0,0,0,2.16-3.45c-.1-1.37-1.13-2.76-3-3.84l-40.31-15.5c-.09-.05-2.85-1.11-2.95-1.15a17.19,17.19,0,0,0-4.93-1.47A11.5,11.5,0,0,0,144.23,171.61Z"/><path d="M150.76,224l49-28.44c3-1.7,2.58-4.68-.83-6.64l-43-16.54c-3.41-2-8.56-2.18-11.51-.47l-32.91,19.28c-3,1.7-2.58,4.68.83,6.64l26.91,25.69C142.66,225.52,147.81,225.73,150.76,224Z"/></g><path class="cls-16" d="M150.76,224l49-28.44a3.45,3.45,0,0,0,2-2.83V189c0-1.29-1,.95-2.82-.11l-43-16.53c-3.41-2-8.56-2.18-11.51-.48l-32.91,19.28c-1,.57-1.7-1.84-2-1.08-.09.26,0,3.64,0,3.91,0,1.32.93,2.72,2.82,3.81l26.91,25.69C142.66,225.45,147.81,225.66,150.76,224Z"/><path class="cls-17" d="M150.76,220.33l49-28.44c3-1.7,2.58-4.68-.83-6.64l-43-16.54c-3.41-2-8.56-2.17-11.51-.47l-32.91,19.28c-3,1.7-2.58,4.68.83,6.64l26.91,25.69C142.66,221.82,147.81,222,150.76,220.33Z"/><path class="cls-18" d="M111.51,187.52l32.91-19.28c3-1.7,8.1-1.49,11.51.47L177.58,177a5,5,0,0,1-.67.47l-49,28.44a8.3,8.3,0,0,1-2.35.87l-13.25-12.66C108.93,192.2,108.56,189.22,111.51,187.52Z"/><path class="cls-19" d="M112.34,193.55l26.91,25.69c3.41,2,8.56,2.18,11.51.47l49-28.44a3.52,3.52,0,0,0,2-2.61,3.3,3.3,0,0,1-2,3.23l-49,28.44c-2.95,1.7-8.1,1.49-11.51-.48l-26.91-25.69c-2-1.15-2.94-2.64-2.8-4A5,5,0,0,0,112.34,193.55Z"/><ellipse class="cls-20" cx="143.51" cy="223.15" rx="16.14" ry="13.81" transform="translate(-117.44 271.07) rotate(-67.66)"/><ellipse class="cls-21" cx="155.84" cy="217.37" rx="59.68" ry="24.18" transform="translate(-60.98 60.76) rotate(-18.52)"/><path class="cls-22" d="M86.78,220.49,207.05,151c6.15-3.55,11.13-13.07,11.13-21.27v-92c0-8.2-5-12-11.13-8.42L86.78,98.82c-6.15,3.55-11.13,13.07-11.13,21.27v92C75.65,220.27,80.63,224,86.78,220.49Z"/><path class="cls-23" d="M85.35,214.08l118.57-68.5c5-3.14,8-9.43,8-15.86V37.14a2,2,0,0,0-3-1.7l-.35.2L89.91,104.23c-5.89,3.4-8,9.43-8,15.86v92.29a2.13,2.13,0,0,0,3.19,1.85Z"/><path class="cls-24" d="M81.9,120.09v92.29a2.13,2.13,0,0,0,3.19,1.85l.26-.15,118.57-68.5c5-3.14,8-9.43,8-15.86V37.14a2,2,0,0,0-3-1.7l-.35.2L89.91,104.23C84,107.63,81.9,113.66,81.9,120.09Zm1.25,0c0-4.8,1.28-11.26,7.38-14.78l119.06-68.8a.81.81,0,0,1,.36-.1.73.73,0,0,1,.73.73v92.58c0,6.13-2.92,11.94-7.38,14.78L84.47,213.15a.88.88,0,0,1-1.32-.77Z"/><path class="cls-25" d="M83.62,97.14,203.89,27.65c2.44-1.41,4.69-1.67,6.52-1,.23.09,3.34,1.74,3.56,1.86h0c-1.9-.92-4.31-.75-6.93.76L86.78,98.82c-6.15,3.55-11.13,13.07-11.13,21.27v92c0,5.12,1.94,8.51,4.89,9.47a1.86,1.86,0,0,1-1-.33c-.14-.08-3.51-2-3.65-2.08-2.11-1.48-3.43-4.52-3.43-8.73v-92C72.49,110.22,77.48,100.69,83.62,97.14Z"/><path class="cls-26" d="M86.25,98.55,206.52,29.06c2.52-1.46,4.83-1.67,6.7-.86a8.22,8.22,0,0,0-5.37,1.26L87.58,99C81.43,102.5,76.45,112,76.45,120.22v92c0,4.83,1.74,8.11,4.43,9.27-3.44-.55-5.77-4.07-5.77-9.68v-92C75.11,111.62,80.1,102.1,86.25,98.55Z"/><ellipse class="cls-27" cx="77.95" cy="107.68" rx="16.14" ry="12.6" transform="translate(-51.28 138.85) rotate(-67.66)"/><ellipse class="cls-28" cx="199.28" cy="69.45" rx="45.09" ry="43.44" transform="translate(59.29 227.38) rotate(-67.66)"/><circle class="cls-29" cx="95.11" cy="76.46" r="9.94" transform="translate(-16.59 27.31) rotate(-15.05)"/><circle class="cls-30" cx="144.14" cy="236.36" r="9.94" transform="translate(-50.74 39.73) rotate(-13.37)"/><path class="cls-31" d="M60.41,202.8h.66v-92c0-8.08,4.92-17.49,11-21l120.27-69.5-.33-.57L71.71,89.26c-6.23,3.59-11.3,13.26-11.3,21.55Z"/><path class="cls-32" d="M145.76,236.71a10.62,10.62,0,0,0,5.17-1.18l49-28.45-.34-.57-49,28.44c-2.84,1.64-7.83,1.44-11.14-.46l-26.89-25.66-.45.48,27,25.74A13.69,13.69,0,0,0,145.76,236.71Z"/><polygon class="cls-33" points="195.66 134.09 209.18 126.22 224.11 134.73 224.11 149.58 210.63 157.37 210.63 157.38 210.63 157.37 210.62 157.38 210.62 157.37 195.66 148.94 195.66 134.09"/><g class="cls-34"><polygon class="cls-35" points="210.63 142.64 210.63 157.38 204.51 153.84 204.51 138.99 210.63 142.64"/><polygon class="cls-36" points="210.62 142.64 210.62 157.38 224.11 149.58 224.11 134.73 210.62 142.64"/><polygon class="cls-37" points="224.11 134.73 210.62 142.64 204.51 138.99 218.03 131.11 224.11 134.73"/></g><polygon class="cls-38" points="195.66 114.82 209.18 106.95 224.11 115.46 224.11 130.32 210.63 138.1 210.63 138.11 210.63 138.11 210.62 138.11 210.62 138.1 195.66 129.68 195.66 114.82"/><g class="cls-34"><polygon class="cls-39" points="210.63 123.38 210.63 138.11 204.51 134.58 204.51 119.72 210.63 123.38"/><polygon class="cls-40" points="210.62 123.38 210.62 138.11 224.11 130.32 224.11 115.46 210.62 123.38"/><polygon class="cls-41" points="224.11 115.46 210.62 123.38 204.51 119.72 218.03 111.85 224.11 115.46"/></g><polygon class="cls-42" points="195.66 95.38 209.18 87.51 224.11 96.02 224.11 110.87 210.63 118.66 210.63 118.67 210.63 118.66 210.62 118.67 210.62 118.66 195.66 110.23 195.66 95.38"/><g class="cls-34"><polygon class="cls-43" points="210.63 103.93 210.63 118.67 204.51 115.13 204.51 100.28 210.63 103.93"/><polygon class="cls-44" points="210.62 103.93 210.62 118.67 224.11 110.87 224.11 96.02 210.62 103.93"/><polygon class="cls-45" points="224.11 96.02 210.62 103.93 204.51 100.28 218.03 92.41 224.11 96.02"/></g><polygon class="cls-46" points="213.65 114.1 221.2 109.74 221.2 101.08 213.65 105.44 213.65 114.1"/><path class="cls-46" d="M212.91,129.31c0,2.67,1.89,3.74,4.21,2.4a9.28,9.28,0,0,0,4.22-7.26c0-2.67-1.89-3.75-4.22-2.41A9.31,9.31,0,0,0,212.91,129.31Z"/><polygon class="cls-46" points="219.72 149.54 222.09 143.45 219.72 140.11 214.98 142.85 212.6 148.93 214.98 152.28 219.72 149.54"/><polygon class="cls-47" points="82.55 173.93 96.07 166.06 111 174.57 111 189.43 97.52 197.21 97.52 197.22 97.51 197.22 97.5 197.22 97.5 197.21 82.55 188.79 82.55 173.93"/><g class="cls-34"><polygon class="cls-48" points="97.52 182.48 97.52 197.22 91.4 193.69 91.4 178.83 97.52 182.48"/><polygon class="cls-49" points="97.5 182.48 97.5 197.22 111 189.43 111 174.57 97.5 182.48"/><polygon class="cls-50" points="111 174.57 97.5 182.48 91.4 178.83 104.92 170.96 111 174.57"/></g><polygon class="cls-51" points="82.55 147.39 96.07 139.52 111 148.03 111 162.88 97.52 170.67 97.52 170.68 97.51 170.67 97.5 170.68 97.5 170.67 82.55 162.24 82.55 147.39"/><g class="cls-34"><polygon class="cls-52" points="97.52 155.94 97.52 170.68 91.4 167.14 91.4 152.29 97.52 155.94"/><polygon class="cls-53" points="97.5 155.94 97.5 170.68 111 162.88 111 148.03 97.5 155.94"/><polygon class="cls-54" points="111 148.03 97.5 155.94 91.4 152.29 104.92 144.41 111 148.03"/></g><polygon class="cls-55" points="82.55 127.62 96.07 119.75 111 128.26 111 143.12 97.52 150.9 97.52 150.91 97.51 150.91 97.5 150.91 97.5 150.9 82.55 142.48 82.55 127.62"/><g class="cls-34"><polygon class="cls-56" points="97.52 136.17 97.52 150.91 91.4 147.38 91.4 132.52 97.52 136.17"/><polygon class="cls-57" points="97.5 136.17 97.5 150.91 111 143.12 111 128.26 97.5 136.17"/><polygon class="cls-58" points="111 128.26 97.5 136.17 91.4 132.52 104.92 124.65 111 128.26"/></g><polygon class="cls-59" points="82.55 107.39 96.07 99.51 111 108.02 111 122.88 97.52 130.66 97.52 130.67 97.51 130.67 97.5 130.67 97.5 130.66 82.55 122.24 82.55 107.39"/><g class="cls-34"><polygon class="cls-60" points="97.52 115.94 97.52 130.67 91.4 127.14 91.4 112.28 97.52 115.94"/><polygon class="cls-61" points="97.5 115.94 97.5 130.67 111 122.88 111 108.02 97.5 115.94"/><polygon class="cls-62" points="111 108.02 97.5 115.94 91.4 112.28 104.92 104.41 111 108.02"/></g><g class="cls-4"><path class="cls-5" d="M225.48,259.71a8.8,8.8,0,0,0,4.39-1.06l19.69-38.15a4.63,4.63,0,0,0,2.52-4,5.41,5.41,0,0,0-3-4.55l-11.69-4.28a10.85,10.85,0,0,0-5.33-1.35,8.76,8.76,0,0,0-4.38,1.05l-51.16,31.3a4.64,4.64,0,0,0-2.51,4,5.39,5.39,0,0,0,3,4.55l43.15,11.15A10.81,10.81,0,0,0,225.48,259.71Z"/><path class="cls-6" d="M248.86,212.05l-11.6-4.25a9.9,9.9,0,0,0-1-.48,11.16,11.16,0,0,0-4.3-.88,9.18,9.18,0,0,0-3.58.68,7.73,7.73,0,0,0-.76.39l-50.76,31a5.15,5.15,0,0,0-2.62,3.73c0,.05,0,.09,0,.13-.14,1.72.88,3.39,2.82,4.51l43.15,11.14a10.53,10.53,0,0,0,5.19,1.32,8.57,8.57,0,0,0,4.29-1l19.51-37.8a5.21,5.21,0,0,0,2.46-3.79,1.49,1.49,0,0,0,0-.21C251.83,214.83,250.8,213.16,248.86,212.05Z"/><path class="cls-7" d="M248.68,212.15l-11.51-4.21c-.26-.15-.71-.35-1-.47a10.92,10.92,0,0,0-4.25-.89,9,9,0,0,0-3.55.68c-.22.1-.55.27-.75.39l-50.36,30.8a5.76,5.76,0,0,0-2.73,3.59l0,.12c-.3,1.65.64,3.33,2.6,4.46l43.15,11.14a10.29,10.29,0,0,0,5.07,1.29,8.33,8.33,0,0,0,4.17-1l19.34-37.47a5.85,5.85,0,0,0,2.41-3.78c0-.07,0-.14,0-.21C251.57,215,250.63,213.28,248.68,212.15Z"/><path class="cls-8" d="M248.5,212.26l-11.42-4.18c-.23-.14-.74-.35-1-.46a10.6,10.6,0,0,0-4.22-.9,8.7,8.7,0,0,0-3.52.68c-.19.09-.55.28-.73.39l-50,30.56a6.69,6.69,0,0,0-2.85,3.44.53.53,0,0,1,0,.12c-.45,1.59.41,3.28,2.38,4.41l43.15,11.14a9.94,9.94,0,0,0,4.94,1.26,8.09,8.09,0,0,0,4.07-1l19.16-37.12a6.79,6.79,0,0,0,2.36-3.79c0-.06,0-.12.06-.19C251.32,215.07,250.45,213.39,248.5,212.26Z"/><path class="cls-9" d="M248.31,212.36,237,208.21c-.2-.11-.77-.34-1-.44a10.46,10.46,0,0,0-4.18-.92,8.72,8.72,0,0,0-3.49.69c-.17.08-.56.3-.72.39l-49.56,30.31c-1,.57-2.93,2.3-3,3.3a1.17,1.17,0,0,1-.05.11c-.6,1.53.19,3.23,2.16,4.38l43.15,11.14a10,10,0,0,0,4.82,1.23,8,8,0,0,0,4-.94l19-36.78a6.7,6.7,0,0,0,2.31-3.78l.07-.18C251.08,215.19,250.28,213.5,248.31,212.36Z"/><path class="cls-10" d="M248.13,212.47l-11.24-4.12c-.17-.1-.8-.35-1-.43a10.19,10.19,0,0,0-4.13-.93,8.38,8.38,0,0,0-3.46.69l-.71.39-49.16,30.07c-.85.49-3,2.3-3.07,3.15l-.06.11c-.76,1.47-.05,3.18,1.94,4.33l43.15,11.14a9.7,9.7,0,0,0,4.69,1.2,7.81,7.81,0,0,0,3.86-.9l18.81-36.44A7.63,7.63,0,0,0,250,217a1.62,1.62,0,0,0,.1-.18C250.83,215.31,250.11,213.61,248.13,212.47Z"/><path class="cls-11" d="M248,212.57l-11.15-4.08c-.15-.08-.84-.35-1-.42a10,10,0,0,0-4.1-.94,8.19,8.19,0,0,0-3.42.69l-.69.39L178.83,238c-.7.4-3.16,2.29-3.18,3a.61.61,0,0,0-.07.1c-.92,1.4-.28,3.12,1.72,4.28l43.15,11.14a9.42,9.42,0,0,0,4.56,1.17,7.57,7.57,0,0,0,3.76-.87l18.63-36.09a9.1,9.1,0,0,0,2.2-3.78l.11-.17C250.58,215.42,249.94,213.72,248,212.57Z"/><path class="cls-12" d="M247.76,212.68l-11.06-4.05c-.11-.07-.86-.35-1-.41a10,10,0,0,0-4.06-1,8,8,0,0,0-3.39.7l-.68.39-48.37,29.58c-.56.33-3.28,2.3-3.3,2.87l-.08.1c-1.07,1.33-.51,3.07,1.51,4.23l43.15,11.14a9.18,9.18,0,0,0,4.43,1.14,7.31,7.31,0,0,0,3.66-.84L247,220.82a11.15,11.15,0,0,0,2.15-3.78,1,1,0,0,0,.13-.16C250.34,215.54,249.76,213.83,247.76,212.68Z"/><path class="cls-13" d="M247.58,212.78l-11-4c-.09-.05-.9-.36-1-.4a9.83,9.83,0,0,0-4-1,7.71,7.71,0,0,0-3.35.7l-.67.39-48,29.34c-.42.25-3.4,2.3-3.41,2.72l-.09.09c-1.23,1.28-.74,3,1.29,4.2L220.55,256a8.89,8.89,0,0,0,4.3,1.1,7.08,7.08,0,0,0,3.55-.81l18.28-35.4a14.63,14.63,0,0,0,2.1-3.78l.14-.15C250.09,215.67,249.59,213.94,247.58,212.78Z"/><path class="cls-14" d="M247.4,212.89l-10.88-4c-.06,0-.93-.36-1-.39a9.69,9.69,0,0,0-4-1,7.52,7.52,0,0,0-3.32.7l-.66.39L180,237.73c-.28.16-3.51,2.29-3.52,2.58l-.1.08c-1.39,1.21-1,3,1.07,4.15l43.15,11.14a8.62,8.62,0,0,0,4.17,1.07,6.82,6.82,0,0,0,3.45-.77l18.1-35.07a21.54,21.54,0,0,0,2.05-3.77l.16-.14C249.85,215.79,249.42,214.05,247.4,212.89Z"/><path class="cls-15" d="M247.21,213l-10.79-4-1-.37a9.33,9.33,0,0,0-3.93-1,7.38,7.38,0,0,0-3.29.71l-.65.39-47.17,28.85c-.14.09-3.63,2.3-3.63,2.44l-.12.08c-1.54,1.14-1.2,2.91.86,4.1l43.15,11.14a8.4,8.4,0,0,0,4,1,6.69,6.69,0,0,0,3.35-.74L246,221a42.67,42.67,0,0,0,2-3.78l.18-.13C249.6,215.91,249.24,214.17,247.21,213Z"/><path d="M227.85,255.38l19.7-38.15c1.83-1.06,1.6-2.91-.52-4.13l-11.69-4.28a8,8,0,0,0-7.15-.3L177,239.81c-1.83,1.06-1.6,2.91.52,4.13l43.15,11.15A8,8,0,0,0,227.85,255.38Z"/></g><polygon class="cls-63" points="193.61 251.46 251.51 209.89 233.9 201.74 176 243.31 193.61 251.46"/><polygon class="cls-64" points="237.42 217.76 243.96 213.06 230.16 206.67 223.62 211.37 237.42 217.76"/><polygon class="cls-65" points="228.85 223.91 235.39 219.22 221.59 212.82 215.05 217.52 228.85 223.91"/><polygon class="cls-66" points="220.28 230.06 226.82 225.37 213.02 218.98 206.48 223.67 220.28 230.06"/><polygon class="cls-67" points="211.71 236.22 218.25 231.52 204.45 225.13 197.91 229.83 211.71 236.22"/><polygon class="cls-68" points="203.14 242.37 209.68 237.68 195.88 231.28 189.34 235.98 203.14 242.37"/><polygon class="cls-69" points="194.57 248.52 201.11 243.83 187.31 237.44 180.77 242.13 194.57 248.52"/><polygon class="cls-70" points="193.61 251.46 251.51 209.89 233.9 201.74 188.71 249.19 193.61 251.46"/><polygon class="cls-71" points="210.61 254.88 254.18 207.87 234.23 201.76 190.66 248.77 210.61 254.88"/><polygon class="cls-72" points="242.85 217.1 247.78 211.79 232.14 207 227.22 212.31 242.85 217.1"/><polygon class="cls-73" points="236.4 224.06 241.33 218.75 225.69 213.96 220.77 219.27 236.4 224.06"/><polygon class="cls-74" points="229.95 231.02 234.88 225.71 219.24 220.92 214.32 226.23 229.95 231.02"/><polygon class="cls-75" points="223.5 237.98 228.43 232.67 212.79 227.88 207.87 233.19 223.5 237.98"/><polygon class="cls-76" points="217.05 244.94 221.98 239.63 206.34 234.84 201.42 240.15 217.05 244.94"/><polygon class="cls-77" points="210.6 251.9 215.53 246.59 199.89 241.8 194.97 247.11 210.6 251.9"/><polygon class="cls-78" points="210.61 254.88 254.18 207.87 234.23 201.76 204.43 253.07 210.61 254.88"/><polygon class="cls-79" points="228.04 256.8 256.19 206.06 234.63 202.15 206.48 252.88 228.04 256.8"/><polygon class="cls-80" points="247.94 216.31 251.11 210.59 234.22 207.51 231.04 213.25 247.94 216.31"/><polygon class="cls-81" points="243.77 223.83 246.95 218.09 230.05 215.03 226.87 220.76 243.77 223.83"/><polygon class="cls-82" points="239.6 231.34 242.78 225.6 225.88 222.54 222.7 228.27 239.6 231.34"/><polygon class="cls-83" points="235.44 238.85 238.62 233.12 221.72 230.05 218.54 235.78 235.44 238.85"/><polygon class="cls-84" points="231.27 246.36 234.45 240.63 217.55 237.56 214.37 243.29 231.27 246.36"/><polygon class="cls-85" points="227.1 253.87 230.28 248.14 213.38 245.07 210.21 250.8 227.1 253.87"/><g class="cls-4"><path class="cls-5" d="M222.73,240.4a9.17,9.17,0,0,0,4.57-1.1l60.28-34.65a4.82,4.82,0,0,0,2.62-4.18,5.63,5.63,0,0,0-3.16-4.74l-34.32-19.79a11.28,11.28,0,0,0-5.56-1.41,9.17,9.17,0,0,0-4.57,1.1l-60.28,34.65a4.83,4.83,0,0,0-2.62,4.18,5.63,5.63,0,0,0,3.16,4.75L217.17,239A11.28,11.28,0,0,0,222.73,240.4Z"/><path class="cls-6" d="M242.64,175.74l-60.28,34.65a4.42,4.42,0,0,0-2.41,4.14,5.31,5.31,0,0,0,.2,1,6.65,6.65,0,0,0,3.09,3.52l34,19.59a11,11,0,0,0,5.55,1.37,11.15,11.15,0,0,0,2.21-.26,9.35,9.35,0,0,0,2.32-.91l60.09-34.54a4.43,4.43,0,0,0,2.42-4.13,5.19,5.19,0,0,0-.25-1.22,6.81,6.81,0,0,0-3-3.34l-33.91-19.54a11.22,11.22,0,0,0-1.35-.65,11.48,11.48,0,0,0-4.12-.78A9,9,0,0,0,242.64,175.74Z"/><path class="cls-7" d="M242.69,175.85,182.41,210.5a4,4,0,0,0-2.19,4.1,6.83,6.83,0,0,0,.25,1,7.61,7.61,0,0,0,3.16,3.39l33.64,19.39a10.74,10.74,0,0,0,7.73,1,10.46,10.46,0,0,0,2.3-.94L287.2,204a4,4,0,0,0,2.21-4.08,5.23,5.23,0,0,0-.31-1.16,7.7,7.7,0,0,0-3.07-3.21l-33.49-19.3a12.63,12.63,0,0,0-1.33-.65,11.37,11.37,0,0,0-4.05-.81A8.77,8.77,0,0,0,242.69,175.85Z"/><path class="cls-8" d="M242.74,176l-60.28,34.65a3.66,3.66,0,0,0-2,4.06,7,7,0,0,0,.32.94,8.71,8.71,0,0,0,3.22,3.26l33.3,19.19a10.35,10.35,0,0,0,7.7.95,12.21,12.21,0,0,0,2.27-1L287,203.72a3.69,3.69,0,0,0,2-4,6.67,6.67,0,0,0-.39-1.11,8.79,8.79,0,0,0-3.11-3.07l-33.07-19.06a14.32,14.32,0,0,0-1.3-.65,11.07,11.07,0,0,0-4-.83A8.58,8.58,0,0,0,242.74,176Z"/><path class="cls-9" d="M242.79,176.07l-60.27,34.65a3.35,3.35,0,0,0-1.77,4,8.64,8.64,0,0,0,.38.9,10.35,10.35,0,0,0,3.28,3.11l33,19a10.25,10.25,0,0,0,5.5,1.25,10.12,10.12,0,0,0,2.16-.38,13.94,13.94,0,0,0,2.25-1l59.52-34.21a3.38,3.38,0,0,0,1.81-4,8.38,8.38,0,0,0-.45-1,10.11,10.11,0,0,0-3.16-2.94l-32.64-18.82c-.28-.16-1-.53-1.29-.65a11.15,11.15,0,0,0-3.93-.86A8.49,8.49,0,0,0,242.79,176.07Z"/><path class="cls-10" d="M242.85,176.18l-60.28,34.65a3.07,3.07,0,0,0-1.56,4,4.9,4.9,0,0,0,.44.85c.2.78,2.48,2.47,3.36,3l32.62,18.8a9.64,9.64,0,0,0,7.64.79,18.77,18.77,0,0,0,2.22-1l59.33-34.11a3.1,3.1,0,0,0,1.6-3.94,10.37,10.37,0,0,0-.51-1,12.47,12.47,0,0,0-3.2-2.81l-32.23-18.57c-.24-.14-1-.54-1.27-.65a10.79,10.79,0,0,0-3.87-.88A8.15,8.15,0,0,0,242.85,176.18Z"/><path class="cls-11" d="M242.9,176.29l-60.28,34.65a2.83,2.83,0,0,0-1.34,3.94,3.8,3.8,0,0,0,.5.8c.16.66,2.69,2.42,3.42,2.85l32.28,18.6A9.86,9.86,0,0,0,223,238.3a10.4,10.4,0,0,0,2.13-.46,23.51,23.51,0,0,0,2.2-1.05l59.14-34a2.86,2.86,0,0,0,1.4-3.89,4.27,4.27,0,0,0-.58-.94c-.18-.61-2.55-2.26-3.25-2.67L252.19,177c-.2-.11-1-.56-1.24-.65a10.75,10.75,0,0,0-3.81-.91A8.05,8.05,0,0,0,242.9,176.29Z"/><path class="cls-12" d="M243,176.4l-60.28,34.65a2.62,2.62,0,0,0-1.12,3.9,4.3,4.3,0,0,0,.55.76c.13.52,2.9,2.36,3.49,2.7l31.94,18.41A9.59,9.59,0,0,0,223,238a10,10,0,0,0,2.11-.5c.31-.1,1.93-.94,2.18-1.08l59-33.89a2.65,2.65,0,0,0,1.19-3.84,4.27,4.27,0,0,0-.64-.88c-.15-.5-2.74-2.22-3.3-2.54L252.1,177.13c-.15-.09-1-.58-1.22-.66a10.82,10.82,0,0,0-3.74-.92A7.77,7.77,0,0,0,243,176.4Z"/><path class="cls-13" d="M243,176.51l-60.28,34.65a2.46,2.46,0,0,0-.91,3.86,4.44,4.44,0,0,0,.62.71c.1.39,3.11,2.31,3.55,2.57l31.6,18.21A9.39,9.39,0,0,0,223,237.6a10,10,0,0,0,2.09-.54c.23-.08,2-1,2.16-1.11l58.76-33.78a2.47,2.47,0,0,0,1-3.79,4.61,4.61,0,0,0-.72-.83c-.1-.37-2.92-2.16-3.34-2.4L252,177.3c-.11-.07-1.07-.6-1.2-.66a10.47,10.47,0,0,0-3.68-.95A7.66,7.66,0,0,0,243,176.51Z"/><path class="cls-14" d="M243.05,176.62l-60.28,34.65a2.32,2.32,0,0,0-.69,3.83,4.72,4.72,0,0,0,.68.65,31.14,31.14,0,0,0,3.61,2.44l31.26,18a9.21,9.21,0,0,0,5.45,1.05,9.63,9.63,0,0,0,2.07-.58c.15,0,2-1.07,2.13-1.14l58.58-33.67a2.31,2.31,0,0,0,.78-3.75,4.71,4.71,0,0,0-.78-.76,30.17,30.17,0,0,0-3.38-2.28l-30.55-17.6-1.18-.66a10.38,10.38,0,0,0-3.62-1A7.41,7.41,0,0,0,243.05,176.62Z"/><path class="cls-15" d="M243.1,176.73l-60.28,34.65a2.2,2.2,0,0,0-.48,3.79,5.08,5.08,0,0,0,.74.6c0,.14,3.54,2.22,3.69,2.3l30.91,17.82a9,9,0,0,0,5.43,1,9.22,9.22,0,0,0,2.06-.62c.08,0,2.05-1.13,2.11-1.17l58.39-33.56a2.19,2.19,0,0,0,.57-3.7,4.62,4.62,0,0,0-.84-.71c0-.12-3.29-2.06-3.43-2.14l-30.13-17.36-1.16-.66a10.31,10.31,0,0,0-3.55-1A7.23,7.23,0,0,0,243.1,176.73Z"/><path d="M225.2,235.89l60.27-34.65c1.92-1.1,1.68-3-.53-4.31l-34.33-19.78a8.32,8.32,0,0,0-7.46-.31l-60.28,34.65c-1.91,1.1-1.67,3,.54,4.31l34.32,19.78A8.31,8.31,0,0,0,225.2,235.89Z"/></g><path class="cls-86" d="M216.82,235.49l-33.95-19.56a3.53,3.53,0,0,1-2-2.92c0-.09,0-2.2,0-2.29.11-1.27,1.08-.57,2.88-1.61l59.46-34.28c3.49-2,8.78-2.24,11.8-.49l34,19.56c1.35.78,2-.59,2.05.5,0,.1,0,2.61,0,2.7-.11,1.27-1.09,2.58-2.88,3.62L228.63,235C225.13,237,219.85,237.24,216.82,235.49Z"/><path class="cls-87" d="M216.82,233.19l-33.95-19.56c-3-1.75-2.64-4.8.85-6.82l59.46-34.28c3.49-2,8.78-2.24,11.8-.49l34,19.57c3,1.74,2.65,4.79-.84,6.81l-59.46,34.29C225.13,234.72,219.85,234.94,216.82,233.19Z"/><path class="cls-88" d="M182.87,213.33l33.95,19.56c3,1.75,8.31,1.53,11.81-.49l59.46-34.28c1.84-1.06,2.81-2.41,2.88-3.7.08,1.38-.9,2.86-2.88,4l-59.46,34.29c-3.5,2-8.78,2.23-11.81.48l-33.95-19.56a3.44,3.44,0,0,1-2-3.11A3.55,3.55,0,0,0,182.87,213.33Z"/><path class="cls-89" d="M185.65,207.79l59.23-34.14c2.56-1.48,6.44-1.64,8.66-.36l33.24,19.15c2.22,1.28,1.94,3.52-.63,5l-59.22,34.15c-2.56,1.48-6.44,1.64-8.66.36L185,212.79C182.81,211.51,183.09,209.27,185.65,207.79Z"/><path class="cls-90" d="M192,204.75l53.76-31a8.34,8.34,0,0,1,7.55,0l32.63,18.8c2.09,1.21,2.11,3.16,0,4.36l-53.75,31Z"/><path d="M195.86,223.21l4.8,2.77h0a2.87,2.87,0,0,0-1.19-2.27l-2.42-1.4c-.66-.38-1.19,0-1.19.9Z"/><ellipse class="cls-91" cx="252.91" cy="217.93" rx="48.18" ry="19.52" transform="matrix(0.95, -0.32, 0.32, 0.95, -56.13, 91.62)"/><path class="cls-92" d="M213,230.44c-2.38,5.8-.29,12.15,4.67,14.19s10.92-1,13.3-6.81.29-12.15-4.67-14.19S215.38,224.64,213,230.44Z"/><path class="cls-93" d="M284.59,196.89a.17.17,0,0,0,.09-.32l-1.61-.94a.17.17,0,0,0-.23.06.18.18,0,0,0,.06.23l1.6.94Z"/><path class="cls-93" d="M280,199.52a.17.17,0,0,0,.14-.08.18.18,0,0,0-.06-.24l-1.6-.94a.18.18,0,0,0-.23.06.18.18,0,0,0,.06.24l1.6.94Z"/><path class="cls-93" d="M275.42,202.15a.19.19,0,0,0,.15-.08.18.18,0,0,0-.06-.23l-1.61-.94a.17.17,0,1,0-.17.29l1.6.94A.15.15,0,0,0,275.42,202.15Z"/><path class="cls-93" d="M270.84,204.79a.17.17,0,0,0,.14-.08.18.18,0,0,0-.06-.24l-1.6-.94a.18.18,0,0,0-.23.06.16.16,0,0,0,.06.23l1.6,1Z"/><path class="cls-93" d="M266.25,207.42a.19.19,0,0,0,.15-.08.18.18,0,0,0-.06-.23l-1.61-.94a.17.17,0,0,0-.23.06.18.18,0,0,0,.06.23l1.6.94A.15.15,0,0,0,266.25,207.42Z"/><path class="cls-93" d="M261.67,210.06a.16.16,0,0,0,.14-.09.17.17,0,0,0-.06-.23l-1.6-.94a.17.17,0,0,0-.23.06.16.16,0,0,0,.06.23l1.6.94A.16.16,0,0,0,261.67,210.06Z"/><path class="cls-93" d="M257.08,212.69a.19.19,0,0,0,.15-.08.17.17,0,0,0-.06-.23l-1.61-.94a.17.17,0,0,0-.23.06.18.18,0,0,0,.06.23l1.6.94Z"/><path class="cls-93" d="M252.5,215.33a.16.16,0,0,0,.14-.09.17.17,0,0,0-.06-.23l-1.6-.94a.17.17,0,0,0-.23.06.16.16,0,0,0,.06.23l1.6.94Z"/><path class="cls-93" d="M247.91,218a.18.18,0,0,0,.15-.08.17.17,0,0,0-.06-.23l-1.61-.94a.16.16,0,0,0-.23.06.18.18,0,0,0,.06.23l1.6.94Z"/><path class="cls-93" d="M243.33,220.6a.16.16,0,0,0,.14-.09.17.17,0,0,0-.06-.23l-1.6-.94a.16.16,0,0,0-.23.06.17.17,0,0,0,.06.23l1.6.94A.16.16,0,0,0,243.33,220.6Z"/><path class="cls-93" d="M238.74,223.23a.18.18,0,0,0,.15-.08.19.19,0,0,0-.06-.24l-1.61-.94a.18.18,0,0,0-.23.06.19.19,0,0,0,.06.24l1.6.94Z"/><path class="cls-93" d="M234.16,225.86a.17.17,0,0,0,.14-.08.17.17,0,0,0-.06-.23l-1.6-.94a.17.17,0,1,0-.17.29l1.6.94A.15.15,0,0,0,234.16,225.86Z"/><path d="M191,210.43h0a4.42,4.42,0,0,1,4.73-.17l26.52,15.44a1.87,1.87,0,0,1,.12,3.15h0a4.88,4.88,0,0,1-5.2.19l-26-15.17A2,2,0,0,1,191,210.43Z"/><path class="cls-94" d="M191,209.66h0a4.42,4.42,0,0,1,4.73-.18l26.52,15.45a1.86,1.86,0,0,1,.12,3.14h0a4.86,4.86,0,0,1-5.2.2l-26-15.18A2,2,0,0,1,191,209.66Z"/><path d="M199.37,218.41l5.43-3.71a1.57,1.57,0,0,1,1.67-.06l6.58,3.83a.65.65,0,0,1,0,1.09l-5.43,3.71a1.56,1.56,0,0,1-1.66.06l-6.59-3.84A.64.64,0,0,1,199.37,218.41Z"/><path class="cls-95" d="M199.37,218l5.43-3.71a1.57,1.57,0,0,1,1.67-.06l6.58,3.83a.65.65,0,0,1,0,1.09l-5.43,3.7a1.54,1.54,0,0,1-1.66.07l-6.59-3.84A.65.65,0,0,1,199.37,218Z"/><path class="cls-96" d="M213.09,218.76l-5.43,3.71a1.56,1.56,0,0,1-1.66.06l-6.59-3.83a.65.65,0,0,1-.28-.36.63.63,0,0,0,.28.73l6.59,3.84a1.54,1.54,0,0,0,1.66-.07l5.43-3.7a.64.64,0,0,0,.25-.72A.63.63,0,0,1,213.09,218.76Z"/><polygon class="cls-97" points="194.24 215.68 194.24 214.89 199.32 211.59 199.67 211.77 194.66 215.1 194.66 215.92 194.24 215.68"/><polygon points="194.47 215.87 194.47 215.07 199.55 211.77 199.9 211.96 194.89 215.29 194.89 216.1 194.47 215.87"/><polygon class="cls-98" points="212.88 226.5 212.88 225.71 217.96 222.4 218.31 222.59 213.3 225.92 213.3 226.74 212.88 226.5"/><polygon points="213.11 226.69 213.11 225.89 218.19 222.59 218.54 222.78 213.53 226.1 213.53 226.92 213.11 226.69"/><path class="cls-99" d="M203.09,218l2.3-1.59a1.08,1.08,0,0,1,1.16,0l2.91,1.7a.52.52,0,0,1,0,.89l-2.31,1.59a1.06,1.06,0,0,1-1.16,0l-2.9-1.69A.52.52,0,0,1,203.09,218Z"/><path class="cls-100" d="M180.84,214.27a3.57,3.57,0,0,0,2,2.8l14.33,8.25-1.78,1.28-12.55-7.23a3.53,3.53,0,0,1-2-2.92C180.83,216.37,180.83,214.72,180.84,214.27Z"/><path class="cls-101" d="M245.62,226.35l42.47-24.49c2.14-1.24,3.11-2.87,2.84-4.34a1.06,1.06,0,0,1,.05.32c0,.1,0,2.61,0,2.7-.11,1.27-1.09,2.58-2.88,3.62l-44,25.34Z"/><ellipse class="cls-102" cx="256.14" cy="175.63" rx="35.41" ry="34.11" transform="translate(-3.66 345.79) rotate(-67.66)"/><path class="cls-103" d="M169.28,105.76c0-4.8-3.39-6.73-7.56-4.32s-7.57,8.26-7.57,13,3.39,6.73,7.57,4.31A16.67,16.67,0,0,0,169.28,105.76Zm-49,65.15v.73l64.62-37.31v-.27c-3.42-2.67-8.25-20.06-12.47-17.62-6.1,3.52-8.89,16.7-16.59,21.15s-12.6-25.16-19.5-21.17C131,119.47,125.57,161.46,120.26,170.91Zm-.21-51.51v2.73l2.37-1.37v-1l11-6.46c-2.2,2.64-4.53,7.29-5.86,13.17l-1,.58a.32.32,0,0,0-.17.29v3a.32.32,0,0,0,.17.29.33.33,0,0,0,.17,0,.32.32,0,0,0,.16,0l2.59-1.5a.32.32,0,0,0,.17-.29v-3a.34.34,0,0,0-.5-.29l-.78.44c1.73-7.12,4.64-11.59,6.69-13.43v.79l2.59-1.5v-.59a3.13,3.13,0,0,1,1.43.11c2.25.69,4.09,3.84,5.6,6.93l-.88.51a.35.35,0,0,0-.17.3v3a.34.34,0,0,0,.17.29.31.31,0,0,0,.34,0l2.59-1.49a.38.38,0,0,0,.17-.3v-3a.34.34,0,0,0-.51-.29l-1.12.64c-1.64-3.35-3.51-6.48-6-7.24a4,4,0,0,0-1.2-.17l9.4-5.53v1.24l2.37-1.37v-2.72l-2.37,1.37v.69L137.61,110v-1.14l-2.59,1.5v1.16l-12.6,7.42V118Zm26.13-1.23v2.19l-1.91,1.1v-2.19Zm-17.24,8.23v2.18L127,129.69V127.5Z"/><ellipse class="cls-104" cx="162.73" cy="110.46" rx="10.66" ry="6.16" transform="translate(-14.76 195.2) rotate(-59.69)"/><path class="cls-105" d="M185.9,134.67,121.27,172v-.73c5.31-9.45,10.77-51.44,16.06-54.5,6.9-4,11.81,25.62,19.51,21.18s10.48-17.63,16.58-21.15c4.23-2.44,9.06,14.95,12.48,17.61Z"/><path class="cls-106" d="M121.07,119.74v2.72l2.37-1.37v-1l11-6.45c-2.2,2.64-4.52,7.29-5.86,13.17l-1,.58a.34.34,0,0,0-.17.29v3a.36.36,0,0,0,.17.3.38.38,0,0,0,.34,0l2.59-1.5a.34.34,0,0,0,.17-.29v-3a.34.34,0,0,0-.17-.29.3.3,0,0,0-.34,0l-.77.44c1.72-7.12,4.63-11.59,6.69-13.43v.79l2.59-1.5v-.59a3.15,3.15,0,0,1,1.43.11c2.24.69,4.08,3.84,5.6,6.93l-.88.51a.32.32,0,0,0-.17.29v3a.32.32,0,0,0,.17.29.33.33,0,0,0,.17,0,.32.32,0,0,0,.16,0l2.59-1.5a.32.32,0,0,0,.17-.29v-3a.34.34,0,0,0-.5-.29l-1.12.64c-1.65-3.35-3.52-6.48-6-7.24a4.1,4.1,0,0,0-1.2-.17l9.4-5.53v1.24l2.37-1.37v-2.72l-2.37,1.37v.69l-9.83,5.79v-1.14L136,110.68v1.17l-12.6,7.42v-.9Zm24.21-.13,1.92-1.1v2.19l-1.92,1.1ZM128,127.84l1.91-1.11v2.19L128,130Z"/><path class="cls-107" d="M265.7,188.62c.88.51,1.81,1.1,2.75,1.76,1.67,1.15,1.59,2.86-.17,4l-.26.16a7.25,7.25,0,0,1-6.86.13,7.33,7.33,0,0,0-7.94,0l-1.6,1c-1.67,1.06-1.63,2.74.09,3.73l.16.09a2.42,2.42,0,0,1,1.46,2.27,2.93,2.93,0,0,1-1.91,2.19l-1.13.53a7.3,7.3,0,0,1-6.31-.16,6.51,6.51,0,0,0-6.15.12l-11.54,7.35a7.33,7.33,0,0,1-6.87.13l-.8-.48-.74-.42a2.64,2.64,0,0,1-1.55-2.07,2.5,2.5,0,0,1,1.36-2.13l14.74-9.38.36.21-14.73,9.37a2.25,2.25,0,0,0-1.23,1.92,2.34,2.34,0,0,0,1.34,1.83l.8.45.73.43a6.13,6.13,0,0,0,3.13.76,6.05,6.05,0,0,0,3.1-.83l11.54-7.35a7.28,7.28,0,0,1,6.86-.13,6.52,6.52,0,0,0,5.66.14l1.13-.53a2.65,2.65,0,0,0,1.72-2,2.2,2.2,0,0,0-1.32-2l-.15-.09c-1.92-1.11-2-3-.11-4.16l1.59-1a8.11,8.11,0,0,1,8.64-.06,6.52,6.52,0,0,0,6.17-.12l.26-.16c1.58-1,1.65-2.54.16-3.57-.94-.65-1.86-1.24-2.73-1.74a18.56,18.56,0,0,0-19.54.57L243.39,191a7.25,7.25,0,0,1-6.86.14l-3.4-2,.35-.22,3.39,2a6.51,6.51,0,0,0,6.15-.13l2.43-1.54A19.24,19.24,0,0,1,265.7,188.62Z"/><path class="cls-108" d="M236,191.36c.53.28,2.19.7,2.47.16s-.9-1.8-1.43-2.09a1.1,1.1,0,0,0-1,1.93Z"/><path class="cls-109" d="M226.64,189.34c-2.81-1.48,1-8.72,4-6.94s6.46,6.39,6.46,6.39h0a1.53,1.53,0,0,1,.06,1.88,1.46,1.46,0,0,1-1.6,1h0S229.45,190.82,226.64,189.34Z"/><path class="cls-110" d="M205.74,177.82l3.85-7.14,21.12,11.71h0l0,0c1.15.62,1.22,2.72.16,4.69s-2.86,3.07-4,2.45l0,0h0Z"/><path class="cls-111" d="M205.76,177.83c1.14.62,2.93-.48,4-2.45s1-4.07-.16-4.69-2.94.48-4,2.45S204.61,177.21,205.76,177.83Z"/><path class="cls-112" d="M175.8,160.92l3.12-5.79,30.72,15.63h0c1.15.62,1.22,2.72.15,4.69s-2.85,3.07-4,2.45l0,0h0Z"/><path class="cls-113" d="M175.81,160.92c.93.5,2.38-.38,3.24-2s.81-3.3-.12-3.8-2.38.39-3.24,2S174.88,160.42,175.81,160.92Z"/><path class="cls-114" d="M178.92,158.91c.86-1.6.8-3.3-.13-3.8l-.06,0a1.12,1.12,0,0,1,.31.1c.93.51,1,2.21.12,3.8s-2.24,2.44-3.17,2C176.9,161.2,178.15,160.34,178.92,158.91Z"/><path class="cls-115" d="M204.43,209.81l26.71-15.93a3.06,3.06,0,0,1,.32-.16,44.77,44.77,0,0,1,6.17-2.62h0c.42-.14.64,0,.53.49a2.35,2.35,0,0,1-.93,1.36h0s-3.95,3.28-6.5,5a3,3,0,0,1-.44.31l0,0h0l-26.83,16.1Z"/><path class="cls-116" d="M222.87,199.71l12-7.14a.88.88,0,0,1,.14-.07,19.56,19.56,0,0,1,2.77-1.18h0c.19-.07.1.58-.18.83h0s-1.77,1.47-2.92,2.23l-.19.14h0l-12,7.22Z"/><path class="cls-117" d="M180.69,157.76c-.44.84,6.35,5.3,13,8.8s12.44,5.66,12.88,4.82S202,167,195.31,163.51,181.13,156.91,180.69,157.76Z"/><rect class="cls-118" x="209.97" y="178.09" width="22.01" height="2.37" rx="1.18" transform="translate(329.37 442.37) rotate(-151.44)"/><rect class="cls-119" x="216.71" y="179.53" width="12.89" height="1.75" rx="0.88" transform="translate(332.92 445.54) rotate(-151.44)"/><path class="cls-120" d="M217.49,177.33a.84.84,0,0,1,.33-.32.55.55,0,0,0-.12.14.88.88,0,0,0,.35,1.19l9.78,5.32a.85.85,0,0,0,.86,0,.86.86,0,0,1-1.07.21l-9.78-5.32A.88.88,0,0,1,217.49,177.33Z"/><path class="cls-121" d="M181.13,156.5l49.33,26.17s.25.17.35.26a37.54,37.54,0,0,1,6.31,5.86h0a1.53,1.53,0,0,1,.06,1.88,1.46,1.46,0,0,1-1.6,1h0a42.08,42.08,0,0,1-8.15-1.93,1.56,1.56,0,0,1-.53-.16l0,0h0l-48.81-27.38Z"/><path class="cls-122" d="M228.7,184.21c-2.5-2-1.36-3.6,1.4-1.38s6.46,5.89,6.46,5.89h0c.42.4.63.72.49.89s-.35.12-1-.27h0S231.2,186.17,228.7,184.21Z"/><path class="cls-123" d="M227.55,189.21c-2.61-.78-2.37-2,.54-1.06s7,2.51,7,2.51h0c.47.17.74.33.7.46s-.22.12-.84,0h0S230.16,190,227.55,189.21Z"/><polygon class="cls-124" points="146.29 64.38 203.25 31.38 223.97 43.69 223.97 63.1 167.05 96.02 167.05 96.03 167.04 96.03 167.04 96.03 167.04 96.02 146.29 83.79 146.29 64.38"/><g class="cls-34"><polygon class="cls-125" points="167.05 76.72 167.05 96.03 161.46 92.8 161.46 73.39 167.05 76.72"/><polygon class="cls-126" points="167.04 76.72 167.04 96.03 223.97 63.1 223.97 43.69 167.04 76.72"/><polygon class="cls-127" points="223.97 43.69 167.04 76.72 161.46 73.39 218.42 40.38 223.97 43.69"/></g><polygon class="cls-64" points="213.51 65.95 220.07 62.17 220.07 49.33 213.51 53.11 213.51 65.95"/><polygon class="cls-65" points="204.92 70.92 211.48 67.13 211.48 54.29 204.92 58.08 204.92 70.92"/><polygon class="cls-66" points="196.32 75.88 202.88 72.09 202.88 59.25 196.32 63.04 196.32 75.88"/><polygon class="cls-67" points="187.72 80.84 194.28 77.06 194.28 64.22 187.72 68 187.72 80.84"/><polygon class="cls-68" points="179.13 85.81 185.69 82.02 185.69 69.18 179.13 72.97 179.13 85.81"/><polygon class="cls-69" points="170.53 90.77 177.09 86.98 177.09 74.14 170.53 77.93 170.53 90.77"/><path class="cls-128" d="M277.27,215.74l18.2-10.49c4.09-2.37,6.44-6,6.44-10a10.48,10.48,0,0,0-5.59-9.11l-59.23-34-.34.58,59.23,34a9.8,9.8,0,0,1,5.25,8.52c0,3.75-2.22,7.18-6.1,9.42l-18.2,10.49Z"/><circle class="cls-129" cx="259.22" cy="165.28" r="9.94" transform="translate(-33.78 72.22) rotate(-14.9)"/></g></g></g></svg>