<svg xmlns="http://www.w3.org/2000/svg" viewBox="0 0 19.77 12.83"><defs><style>.cls-1{fill:#fff;}</style></defs><title>message</title><g id="Layer_2" data-name="Layer 2"><g id="Layer_1-2" data-name="Layer 1"><path class="cls-1" d="M18.35,0a1.3,1.3,0,0,1,.75.25L14.24,4.42a6.69,6.69,0,0,1-8.71,0L.66.25A1.32,1.32,0,0,1,1.41,0ZM0,1.41A1.4,1.4,0,0,1,.6.29l6,6L.5,12.47A1.4,1.4,0,0,1,0,11.41ZM1.41,12.83a1.37,1.37,0,0,1-.85-.32L5.75,8.06a2,2,0,0,1,2.72.1h0a2,2,0,0,0,2.83,0h0A2,2,0,0,1,14,8.06l5.19,4.45a1.38,1.38,0,0,1-.86.32ZM19.17.29a1.4,1.4,0,0,1,.6,1.12v10a1.4,1.4,0,0,1-.51,1.06L13.12,6.33"/></g></g></svg>