<svg xmlns="http://www.w3.org/2000/svg" xmlns:xlink="http://www.w3.org/1999/xlink" viewBox="0 0 660.76 994.55"><defs><style>.cls-1{isolation:isolate;}.cls-2,.cls-3,.cls-4,.cls-7{opacity:0.35;}.cls-2{fill:url(#linear-gradient);}.cls-3{fill:url(#linear-gradient-2);}.cls-4{fill:url(#linear-gradient-3);}.cls-5{fill:url(#linear-gradient-4);}.cls-6{fill:#9f19ab;}.cls-7{fill:url(#linear-gradient-5);}.cls-127,.cls-27,.cls-8,.cls-96{opacity:0.5;}.cls-101,.cls-102,.cls-103,.cls-107,.cls-111,.cls-119,.cls-126,.cls-133,.cls-26,.cls-27,.cls-33,.cls-34,.cls-37,.cls-38,.cls-8,.cls-93,.cls-96,.cls-97{mix-blend-mode:color-dodge;}.cls-8{fill:url(#radial-gradient);}.cls-10,.cls-105,.cls-106,.cls-120,.cls-128,.cls-9{opacity:0.2;}.cls-9{fill:url(#linear-gradient-6);}.cls-11{opacity:0;}.cls-12{opacity:0.09;}.cls-13{opacity:0.18;}.cls-14{opacity:0.27;}.cls-15{opacity:0.36;}.cls-16{opacity:0.45;}.cls-17{opacity:0.55;}.cls-18{opacity:0.64;}.cls-19{opacity:0.73;}.cls-20{opacity:0.82;}.cls-21{opacity:0.91;}.cls-22{fill:url(#linear-gradient-7);}.cls-23{fill:url(#linear-gradient-8);}.cls-24{opacity:0.82;fill:url(#linear-gradient-9);}.cls-108,.cls-120,.cls-121,.cls-123,.cls-24,.cls-30,.cls-76,.cls-83{mix-blend-mode:multiply;}.cls-25,.cls-32{opacity:0.6;}.cls-122,.cls-125,.cls-127,.cls-128,.cls-129,.cls-134,.cls-25,.cls-32,.cls-35,.cls-36,.cls-39,.cls-44,.cls-48,.cls-53,.cls-57,.cls-61,.cls-65{mix-blend-mode:screen;}.cls-25{fill:url(#radial-gradient-2);}.cls-26{fill:url(#radial-gradient-3);}.cls-27{fill:url(#radial-gradient-4);}.cls-28{fill:url(#linear-gradient-10);}.cls-29{fill:url(#linear-gradient-11);}.cls-30{fill:#bcbec0;}.cls-31{fill:url(#linear-gradient-12);}.cls-32{fill:url(#radial-gradient-5);}.cls-33{fill:url(#radial-gradient-6);}.cls-34{fill:url(#radial-gradient-7);}.cls-35{fill:url(#radial-gradient-8);}.cls-36{fill:url(#radial-gradient-9);}.cls-37{fill:url(#radial-gradient-10);}.cls-38{fill:url(#radial-gradient-11);}.cls-39{fill:url(#linear-gradient-13);}.cls-40{opacity:0.9;}.cls-41{fill:url(#linear-gradient-14);}.cls-42{fill:url(#linear-gradient-15);}.cls-43{fill:url(#linear-gradient-16);}.cls-44{fill:url(#linear-gradient-17);}.cls-45{fill:url(#linear-gradient-18);}.cls-46{fill:url(#linear-gradient-19);}.cls-47{fill:url(#linear-gradient-20);}.cls-48{fill:url(#linear-gradient-21);}.cls-49{fill:url(#linear-gradient-22);}.cls-50{fill:url(#linear-gradient-23);}.cls-51{fill:url(#linear-gradient-24);}.cls-52{fill:#fff;}.cls-53{fill:url(#linear-gradient-25);}.cls-54{fill:url(#linear-gradient-26);}.cls-55{fill:url(#linear-gradient-27);}.cls-56{fill:url(#linear-gradient-28);}.cls-57{fill:url(#linear-gradient-29);}.cls-58{fill:url(#linear-gradient-30);}.cls-59{fill:url(#linear-gradient-31);}.cls-60{fill:url(#linear-gradient-32);}.cls-61{fill:url(#linear-gradient-33);}.cls-62{fill:url(#linear-gradient-34);}.cls-63{fill:url(#linear-gradient-35);}.cls-64{fill:url(#linear-gradient-36);}.cls-65{fill:url(#linear-gradient-37);}.cls-66{fill:url(#linear-gradient-38);}.cls-67{fill:url(#linear-gradient-39);}.cls-68{fill:url(#linear-gradient-40);}.cls-69{fill:url(#linear-gradient-41);}.cls-70{fill:#138bbd;}.cls-71{fill:#18a0ca;}.cls-72{fill:#1cb6d7;}.cls-73{fill:#21cbe5;}.cls-74{fill:#25e1f2;}.cls-75{fill:#2af6ff;}.cls-76{fill:url(#linear-gradient-42);}.cls-77{fill:url(#linear-gradient-43);}.cls-78{fill:#b228b2;}.cls-79{fill:#c537b9;}.cls-80{fill:#d945c0;}.cls-81{fill:#ec54c7;}.cls-82{fill:#ff63ce;}.cls-83{fill:url(#linear-gradient-44);}.cls-84{fill:url(#linear-gradient-45);}.cls-85{fill:#ffba78;}.cls-86{fill:#ffc281;}.cls-87{fill:#ffcb8b;}.cls-88{fill:#ffd394;}.cls-89{fill:#ffdc9e;}.cls-90{fill:#ffe4a7;}.cls-91{fill:url(#linear-gradient-46);}.cls-92{fill:url(#linear-gradient-47);}.cls-93{fill:url(#radial-gradient-12);}.cls-94{fill:#1f0d3d;}.cls-95{fill:url(#linear-gradient-48);}.cls-96{fill:url(#radial-gradient-13);}.cls-97{fill:url(#radial-gradient-14);}.cls-98{fill:#25054d;}.cls-99{fill:url(#linear-gradient-49);}.cls-100{fill:url(#linear-gradient-50);}.cls-101{fill:url(#radial-gradient-15);}.cls-102{fill:url(#radial-gradient-16);}.cls-103{fill:url(#radial-gradient-17);}.cls-104{fill:url(#linear-gradient-51);}.cls-105{fill:url(#linear-gradient-52);}.cls-106{fill:url(#linear-gradient-53);}.cls-107{fill:url(#radial-gradient-18);}.cls-108{fill:#e6e7e8;}.cls-109{fill:url(#linear-gradient-54);}.cls-110{fill:url(#linear-gradient-55);}.cls-111{fill:url(#radial-gradient-19);}.cls-112{fill:#ff5fff;}.cls-113{fill:url(#radial-gradient-20);}.cls-114{fill:url(#linear-gradient-56);}.cls-115{fill:url(#linear-gradient-57);}.cls-116{fill:url(#linear-gradient-58);}.cls-117{fill:url(#linear-gradient-59);}.cls-118{fill:url(#linear-gradient-60);}.cls-119{fill:url(#radial-gradient-21);}.cls-120{fill:url(#radial-gradient-22);}.cls-121{opacity:0.3;fill:url(#radial-gradient-23);}.cls-122{fill:url(#radial-gradient-24);}.cls-123{fill:#939598;}.cls-124{fill:url(#linear-gradient-61);}.cls-125{fill:#58595b;}.cls-126{fill:url(#radial-gradient-25);}.cls-127{fill:url(#radial-gradient-26);}.cls-128{fill:url(#radial-gradient-27);}.cls-129{fill:url(#linear-gradient-62);}.cls-130{fill:url(#linear-gradient-63);}.cls-131{fill:url(#linear-gradient-64);}.cls-132{fill:url(#linear-gradient-65);}.cls-133{fill:url(#radial-gradient-28);}.cls-134{fill:url(#radial-gradient-29);}</style><linearGradient id="linear-gradient" x1="-72.22" y1="818.78" x2="194.34" y2="441.32" gradientUnits="userSpaceOnUse"><stop offset="0.04" stop-color="#9f19ab"/><stop offset="0.24" stop-color="#ae25b1"/><stop offset="0.65" stop-color="#d744bf"/><stop offset="1" stop-color="#ff63ce"/></linearGradient><linearGradient id="linear-gradient-2" x1="19.32" y1="983.23" x2="69.33" y2="983.23" gradientTransform="matrix(1.37, -0.56, -0.56, 1.85, 1134.4, -1733.27)" gradientUnits="userSpaceOnUse"><stop offset="0.04" stop-color="#ffa98c"/><stop offset="0.26" stop-color="#ff9a83"/><stop offset="0.68" stop-color="#fe716d"/><stop offset="1" stop-color="#fe4f59"/></linearGradient><linearGradient id="linear-gradient-3" x1="443.5" y1="750.72" x2="660.76" y2="750.72" xlink:href="#linear-gradient"/><linearGradient id="linear-gradient-4" x1="9.64" y1="364.84" x2="363.81" y2="364.84" gradientTransform="matrix(1.25, -0.28, -0.28, 1.32, 6.41, -7.22)" gradientUnits="userSpaceOnUse"><stop offset="0.04" stop-color="#6b24d6"/><stop offset="0.32" stop-color="#7a1cd0"/><stop offset="0.86" stop-color="#a306c1"/><stop offset="0.98" stop-color="#ad00bd"/></linearGradient><linearGradient id="linear-gradient-5" x1="369.08" y1="733.62" x2="660.16" y2="733.62" xlink:href="#linear-gradient"/><radialGradient id="radial-gradient" cx="76.26" cy="346.52" r="136.72" gradientTransform="matrix(-0.96, 0, 0, 0.98, 201.18, 50.59)" gradientUnits="userSpaceOnUse"><stop offset="0" stop-color="#fa45c1"/><stop offset="0.21" stop-color="#cb389d"/><stop offset="0.67" stop-color="#571843"/><stop offset="1"/></radialGradient><linearGradient id="linear-gradient-6" x1="161.39" y1="465.49" x2="258.64" y2="465.49" gradientTransform="matrix(-1, 0, 0, 1, 347.08, 0)" gradientUnits="userSpaceOnUse"><stop offset="0.06" stop-color="#200041"/><stop offset="0.26" stop-color="#210243"/><stop offset="0.36" stop-color="#25084b"/><stop offset="0.43" stop-color="#2c1358"/><stop offset="0.47" stop-color="#311b61"/><stop offset="0.48" stop-color="#351f65"/><stop offset="0.5" stop-color="#422c73"/><stop offset="0.51" stop-color="#584188"/><stop offset="0.52" stop-color="#765fa7"/><stop offset="0.53" stop-color="#8770b8"/><stop offset="0.54" stop-color="#7e67ae"/><stop offset="0.56" stop-color="#5c468d"/><stop offset="0.59" stop-color="#442e75"/><stop offset="0.61" stop-color="#362066"/><stop offset="0.63" stop-color="#311b61"/><stop offset="0.67" stop-color="#2a1155"/><stop offset="0.75" stop-color="#230446"/><stop offset="0.81" stop-color="#200041"/><stop offset="1" stop-color="#200041"/></linearGradient><linearGradient id="linear-gradient-7" x1="161.39" y1="450.66" x2="258.64" y2="450.66" xlink:href="#linear-gradient-6"/><linearGradient id="linear-gradient-8" x1="187.42" y1="456.92" x2="231.5" y2="432.53" gradientTransform="matrix(-1, 0, 0, 1, 347.08, 0)" gradientUnits="userSpaceOnUse"><stop offset="0" stop-color="#311b61"/><stop offset="0.2" stop-color="#290f52"/><stop offset="0.49" stop-color="#200041"/><stop offset="1" stop-color="#0f001f"/></linearGradient><linearGradient id="linear-gradient-9" x1="210.8" y1="445.39" x2="219.45" y2="430.88" gradientTransform="matrix(-1, 0, 0, 1, 347.08, 0)" gradientUnits="userSpaceOnUse"><stop offset="0" stop-color="#fff"/><stop offset="1"/></linearGradient><radialGradient id="radial-gradient-2" cx="211.09" cy="465.11" r="34.6" gradientTransform="matrix(-1, 0, 0, 1, 347.08, 0)" gradientUnits="userSpaceOnUse"><stop offset="0" stop-color="#af8afc"/><stop offset="1" stop-color="#10054d"/></radialGradient><radialGradient id="radial-gradient-3" cx="-1179.36" cy="-688.42" r="24.31" gradientTransform="matrix(0, -0.57, -0.66, 0, -325.83, -194)" gradientUnits="userSpaceOnUse"><stop offset="0" stop-color="#972a74"/><stop offset="0.04" stop-color="#8a266a"/><stop offset="0.19" stop-color="#601b4a"/><stop offset="0.35" stop-color="#3d112f"/><stop offset="0.51" stop-color="#230a1b"/><stop offset="0.67" stop-color="#0f040c"/><stop offset="0.83" stop-color="#040103"/><stop offset="1"/></radialGradient><radialGradient id="radial-gradient-4" cx="-657.79" cy="-1524.89" r="55.22" gradientTransform="matrix(-1.08, 0, 0, 0.44, -567.44, 1137.99)" gradientUnits="userSpaceOnUse"><stop offset="0" stop-color="#4f18ad"/><stop offset="0.29" stop-color="#3a127f"/><stop offset="0.94" stop-color="#05010a"/><stop offset="1"/></radialGradient><linearGradient id="linear-gradient-10" x1="282.16" y1="474.04" x2="133.34" y2="268.11" xlink:href="#linear-gradient-8"/><linearGradient id="linear-gradient-11" x1="153.47" y1="288.62" x2="280.08" y2="479.02" gradientTransform="matrix(-1, 0, 0, 1, 347.08, 0)" gradientUnits="userSpaceOnUse"><stop offset="0.01" stop-color="#9f19ab"/><stop offset="0.43" stop-color="#5f27bd"/><stop offset="0.9" stop-color="#3d065f"/></linearGradient><linearGradient id="linear-gradient-12" x1="313.78" y1="478.52" x2="196.64" y2="291.35" xlink:href="#linear-gradient-6"/><radialGradient id="radial-gradient-5" cx="280.55" cy="371.93" r="19.94" xlink:href="#radial-gradient-2"/><radialGradient id="radial-gradient-6" cx="-1586.57" cy="-811.21" r="24.31" gradientTransform="matrix(0, -0.52, -0.66, 0, -472.81, -462.08)" xlink:href="#radial-gradient-3"/><radialGradient id="radial-gradient-7" cx="-1151.05" cy="-934.17" r="67.93" gradientTransform="matrix(0, -0.64, -0.66, 0, -433.16, -413.88)" xlink:href="#radial-gradient-3"/><radialGradient id="radial-gradient-8" cx="264.31" cy="329.21" r="9.94" gradientTransform="matrix(-0.97, -0.26, -0.26, 0.97, 423.49, 79.91)" gradientUnits="userSpaceOnUse"><stop offset="0.09" stop-color="#c211a1"/><stop offset="0.09" stop-color="#b9109b"/><stop offset="0.13" stop-color="#5b0663"/><stop offset="0.15" stop-color="#510558"/><stop offset="0.21" stop-color="#38043d"/><stop offset="0.29" stop-color="#230226"/><stop offset="0.37" stop-color="#130115"/><stop offset="0.48" stop-color="#080109"/><stop offset="0.62" stop-color="#020002"/><stop offset="1"/></radialGradient><radialGradient id="radial-gradient-9" cx="215.28" cy="489.11" r="9.94" gradientTransform="matrix(-0.97, -0.23, -0.23, 0.97, 454.33, 63.03)" xlink:href="#radial-gradient-8"/><radialGradient id="radial-gradient-10" cx="246.98" cy="351" r="79.76" gradientTransform="matrix(-1, 0, 0, 1, 347.08, 0)" xlink:href="#radial-gradient"/><radialGradient id="radial-gradient-11" cx="214.02" cy="472.59" r="32.82" gradientTransform="matrix(-1, 0, 0, 1, 347.08, 0)" xlink:href="#radial-gradient"/><linearGradient id="linear-gradient-13" x1="143.04" y1="398.97" x2="162.78" y2="385.64" gradientTransform="matrix(-1, 0, 0, 1, 347.08, 0)" gradientUnits="userSpaceOnUse"><stop offset="0" stop-color="#fdd65b"/><stop offset="0.01" stop-color="#f7d159"/><stop offset="0.13" stop-color="#bea144"/><stop offset="0.25" stop-color="#8b7632"/><stop offset="0.37" stop-color="#605223"/><stop offset="0.49" stop-color="#3e3416"/><stop offset="0.62" stop-color="#231d0c"/><stop offset="0.74" stop-color="#0f0d05"/><stop offset="0.87" stop-color="#040301"/><stop offset="1"/></linearGradient><linearGradient id="linear-gradient-14" x1="150.29" y1="401.4" x2="170.78" y2="395.26" gradientTransform="matrix(-1, 0, 0, 1, 347.08, 0)" gradientUnits="userSpaceOnUse"><stop offset="0.04" stop-color="#ffa98c"/><stop offset="0.32" stop-color="#ffb892"/><stop offset="0.86" stop-color="#fee1a3"/><stop offset="1" stop-color="#feeca8"/></linearGradient><linearGradient id="linear-gradient-15" x1="119.09" y1="403.95" x2="166.02" y2="393.43" xlink:href="#linear-gradient-14"/><linearGradient id="linear-gradient-16" x1="151.93" y1="376.61" x2="144.58" y2="390.61" xlink:href="#linear-gradient-14"/><linearGradient id="linear-gradient-17" x1="143.04" y1="379.71" x2="162.78" y2="366.38" xlink:href="#linear-gradient-13"/><linearGradient id="linear-gradient-18" x1="150.29" y1="382.13" x2="170.78" y2="376" xlink:href="#linear-gradient-14"/><linearGradient id="linear-gradient-19" x1="119.09" y1="384.68" x2="166.02" y2="374.16" xlink:href="#linear-gradient-14"/><linearGradient id="linear-gradient-20" x1="151.93" y1="357.35" x2="144.58" y2="371.35" xlink:href="#linear-gradient-14"/><linearGradient id="linear-gradient-21" x1="143.04" y1="360.26" x2="162.78" y2="346.94" xlink:href="#linear-gradient-13"/><linearGradient id="linear-gradient-22" x1="150.29" y1="362.69" x2="170.78" y2="356.55" xlink:href="#linear-gradient-14"/><linearGradient id="linear-gradient-23" x1="119.09" y1="365.24" x2="166.02" y2="354.72" xlink:href="#linear-gradient-14"/><linearGradient id="linear-gradient-24" x1="151.93" y1="337.9" x2="144.58" y2="351.9" xlink:href="#linear-gradient-14"/><linearGradient id="linear-gradient-25" x1="256.15" y1="438.82" x2="275.89" y2="425.49" gradientTransform="matrix(-1, 0, 0, 1, 347.08, 0)" gradientUnits="userSpaceOnUse"><stop offset="0" stop-color="#2af6ff"/><stop offset="0.02" stop-color="#29eef7"/><stop offset="0.13" stop-color="#1fb7be"/><stop offset="0.25" stop-color="#17868b"/><stop offset="0.37" stop-color="#105d60"/><stop offset="0.49" stop-color="#0a3b3e"/><stop offset="0.62" stop-color="#062123"/><stop offset="0.74" stop-color="#030f0f"/><stop offset="0.87" stop-color="#010404"/><stop offset="1"/></linearGradient><linearGradient id="linear-gradient-26" x1="263.4" y1="441.24" x2="283.89" y2="435.11" gradientTransform="matrix(-1, 0, 0, 1, 347.08, 0)" gradientUnits="userSpaceOnUse"><stop offset="0.04" stop-color="#138bbd"/><stop offset="0.23" stop-color="#169ac7"/><stop offset="0.59" stop-color="#1fc3df"/><stop offset="1" stop-color="#2af6ff"/></linearGradient><linearGradient id="linear-gradient-27" x1="232.2" y1="443.79" x2="279.13" y2="433.27" xlink:href="#linear-gradient-26"/><linearGradient id="linear-gradient-28" x1="265.04" y1="416.46" x2="257.69" y2="430.46" xlink:href="#linear-gradient-26"/><linearGradient id="linear-gradient-29" x1="256.15" y1="412.27" x2="275.89" y2="398.94" gradientTransform="matrix(-1, 0, 0, 1, 347.08, 0)" gradientUnits="userSpaceOnUse"><stop offset="0" stop-color="#c211a1"/><stop offset="0.01" stop-color="#bd119d"/><stop offset="0.15" stop-color="#8b0c73"/><stop offset="0.29" stop-color="#600850"/><stop offset="0.42" stop-color="#3e0533"/><stop offset="0.56" stop-color="#23031d"/><stop offset="0.7" stop-color="#0f010d"/><stop offset="0.85" stop-color="#040003"/><stop offset="1"/></linearGradient><linearGradient id="linear-gradient-30" x1="263.4" y1="414.7" x2="283.89" y2="408.56" gradientTransform="matrix(-1, 0, 0, 1, 347.08, 0)" xlink:href="#linear-gradient"/><linearGradient id="linear-gradient-31" x1="232.2" y1="417.25" x2="279.13" y2="406.73" gradientTransform="matrix(-1, 0, 0, 1, 347.08, 0)" xlink:href="#linear-gradient"/><linearGradient id="linear-gradient-32" x1="265.04" y1="389.91" x2="257.69" y2="403.91" gradientTransform="matrix(-1, 0, 0, 1, 347.08, 0)" xlink:href="#linear-gradient"/><linearGradient id="linear-gradient-33" x1="256.15" y1="392.5" x2="275.89" y2="379.18" xlink:href="#linear-gradient-29"/><linearGradient id="linear-gradient-34" x1="263.4" y1="394.93" x2="283.89" y2="388.8" gradientTransform="matrix(-1, 0, 0, 1, 347.08, 0)" xlink:href="#linear-gradient"/><linearGradient id="linear-gradient-35" x1="232.2" y1="397.48" x2="279.13" y2="386.96" gradientTransform="matrix(-1, 0, 0, 1, 347.08, 0)" xlink:href="#linear-gradient"/><linearGradient id="linear-gradient-36" x1="265.04" y1="370.14" x2="257.69" y2="384.15" gradientTransform="matrix(-1, 0, 0, 1, 347.08, 0)" xlink:href="#linear-gradient"/><linearGradient id="linear-gradient-37" x1="256.15" y1="372.27" x2="275.89" y2="358.94" xlink:href="#linear-gradient-29"/><linearGradient id="linear-gradient-38" x1="263.4" y1="374.69" x2="283.89" y2="368.56" gradientTransform="matrix(-1, 0, 0, 1, 347.08, 0)" xlink:href="#linear-gradient"/><linearGradient id="linear-gradient-39" x1="232.2" y1="377.24" x2="279.13" y2="366.72" gradientTransform="matrix(-1, 0, 0, 1, 347.08, 0)" xlink:href="#linear-gradient"/><linearGradient id="linear-gradient-40" x1="265.04" y1="349.91" x2="257.69" y2="363.91" gradientTransform="matrix(-1, 0, 0, 1, 347.08, 0)" xlink:href="#linear-gradient"/><linearGradient id="linear-gradient-41" x1="-1907.79" y1="3144.83" x2="-1905.68" y2="3127.45" gradientTransform="matrix(-0.87, 0.5, 1, 0.58, -4586.54, -378.36)" gradientUnits="userSpaceOnUse"><stop offset="0.03" stop-color="#d4d1d8"/><stop offset="1" stop-color="#eeebf2"/></linearGradient><linearGradient id="linear-gradient-42" x1="-1907.83" y1="3144.91" x2="-1905.97" y2="3129.46" xlink:href="#linear-gradient-41"/><linearGradient id="linear-gradient-43" x1="-1912.39" y1="3150.76" x2="-1907.99" y2="3135" xlink:href="#linear-gradient-41"/><linearGradient id="linear-gradient-44" x1="-1912.71" y1="3150.68" x2="-1908.61" y2="3136" xlink:href="#linear-gradient-41"/><linearGradient id="linear-gradient-45" x1="-1919.65" y1="3157.43" x2="-1907.89" y2="3137.42" xlink:href="#linear-gradient-41"/><linearGradient id="linear-gradient-46" x1="1352.9" y1="457.66" x2="1463.05" y2="457.66" gradientTransform="matrix(-1, 0, 0, 1, 1621.29, 0)" xlink:href="#linear-gradient-6"/><linearGradient id="linear-gradient-47" x1="105.29" y1="468.61" x2="179.13" y2="414.97" xlink:href="#linear-gradient-8"/><radialGradient id="radial-gradient-12" cx="6228.83" cy="469.1" r="41.57" gradientTransform="translate(-6012.64)" xlink:href="#linear-gradient-9"/><linearGradient id="linear-gradient-48" x1="71.9" y1="453.14" x2="167.42" y2="453.14" gradientTransform="matrix(-1, 0, 0, 1, 347.08, 0)" gradientUnits="userSpaceOnUse"><stop offset="0" stop-color="#861eb2"/><stop offset="0.43" stop-color="#5f27bd"/><stop offset="0.9" stop-color="#3d065f"/></linearGradient><radialGradient id="radial-gradient-13" cx="-742.79" cy="-1453.28" r="44.58" gradientTransform="matrix(-1.08, 0, 0, 0.44, -562.24, 1107.19)" xlink:href="#radial-gradient-4"/><radialGradient id="radial-gradient-14" cx="-1314.49" cy="-718.05" r="17.1" gradientTransform="matrix(-0.53, -0.22, -0.25, 0.61, -662.15, 643.96)" xlink:href="#radial-gradient-3"/><linearGradient id="linear-gradient-49" x1="148.34" y1="466.22" x2="164.7" y2="486.11" xlink:href="#linear-gradient-8"/><linearGradient id="linear-gradient-50" x1="149.91" y1="468.13" x2="174.64" y2="492.11" xlink:href="#linear-gradient-8"/><radialGradient id="radial-gradient-15" cx="8221.38" cy="473.47" r="5.32" gradientTransform="translate(-8027.48)" xlink:href="#linear-gradient-9"/><radialGradient id="radial-gradient-16" cx="8212.1" cy="466.5" r="2.46" gradientTransform="translate(-8027.48)" xlink:href="#linear-gradient-9"/><radialGradient id="radial-gradient-17" cx="8230.73" cy="477.32" r="2.46" gradientTransform="translate(-8027.48)" xlink:href="#linear-gradient-9"/><linearGradient id="linear-gradient-51" x1="8222.72" y1="475.38" x2="8220.1" y2="467" gradientTransform="translate(-8027.48)" xlink:href="#linear-gradient-8"/><linearGradient id="linear-gradient-52" x1="68.54" y1="473.18" x2="182.33" y2="473.18" xlink:href="#linear-gradient-6"/><linearGradient id="linear-gradient-53" x1="68.54" y1="466.26" x2="182.33" y2="466.26" xlink:href="#linear-gradient-6"/><radialGradient id="radial-gradient-18" cx="-1296.39" cy="-818.8" r="53.34" gradientTransform="matrix(0, -0.64, -0.66, 0, -299.68, -400.67)" xlink:href="#radial-gradient-3"/><linearGradient id="linear-gradient-54" x1="199.93" y1="374.65" x2="192.32" y2="347.77" gradientTransform="matrix(-0.5, -0.86, -0.86, 0.5, 563.22, 349.71)" gradientUnits="userSpaceOnUse"><stop offset="0.04" stop-color="#ffba78"/><stop offset="0.4" stop-color="#ffc987"/><stop offset="1" stop-color="#feeca8"/></linearGradient><linearGradient id="linear-gradient-55" x1="213.18" y1="422.88" x2="193.91" y2="364.89" xlink:href="#linear-gradient-26"/><radialGradient id="radial-gradient-19" cx="224.51" cy="365.46" r="30.25" gradientTransform="matrix(-1, 0, 0, 1, 347.08, 0)" xlink:href="#radial-gradient"/><radialGradient id="radial-gradient-20" cx="2116.67" cy="5486.39" r="2.16" gradientTransform="matrix(-0.47, 0.88, 0.88, 0.47, -3600.84, -4023.24)" gradientUnits="userSpaceOnUse"><stop offset="0.1" stop-color="#8493ba"/><stop offset="0.21" stop-color="#606c90"/><stop offset="0.33" stop-color="#444d6e"/><stop offset="0.43" stop-color="#303756"/><stop offset="0.53" stop-color="#232a47"/><stop offset="0.62" stop-color="#1f2542"/><stop offset="0.71" stop-color="#242a49"/><stop offset="0.83" stop-color="#34395b"/><stop offset="0.98" stop-color="#4d5179"/><stop offset="0.98" stop-color="#4d517a"/></radialGradient><linearGradient id="linear-gradient-56" x1="2112.99" y1="5480.67" x2="2120.88" y2="5480.67" gradientTransform="matrix(-0.47, 0.88, 0.88, 0.47, -3600.84, -4023.24)" gradientUnits="userSpaceOnUse"><stop offset="0" stop-color="#7d62b8"/><stop offset="0.13" stop-color="#9039b1"/><stop offset="0.25" stop-color="#9f19ab"/><stop offset="0.29" stop-color="#89169c"/><stop offset="0.36" stop-color="#5e1080"/><stop offset="0.43" stop-color="#3c0b6a"/><stop offset="0.5" stop-color="#24085a"/><stop offset="0.56" stop-color="#150650"/><stop offset="0.62" stop-color="#10054d"/><stop offset="0.67" stop-color="#150754"/><stop offset="0.75" stop-color="#230e66"/><stop offset="0.84" stop-color="#391985"/><stop offset="0.93" stop-color="#5526ab"/><stop offset="0.96" stop-color="#4d1ba4"/><stop offset="1" stop-color="#4916a1"/></linearGradient><linearGradient id="linear-gradient-57" x1="2112.67" y1="5466.32" x2="2120.93" y2="5466.32" xlink:href="#linear-gradient-56"/><linearGradient id="linear-gradient-58" x1="3893.78" y1="4177.05" x2="3908.56" y2="4178.06" gradientTransform="matrix(0, 1, 1, 0, -3982.25, -3474.69)" gradientUnits="userSpaceOnUse"><stop offset="0" stop-color="#d6dae6"/><stop offset="0.01" stop-color="#d4d8e6"/><stop offset="0.28" stop-color="#b4b8e3"/><stop offset="0.4" stop-color="#9a9fc8"/><stop offset="0.53" stop-color="#838ab0"/><stop offset="0.65" stop-color="#757da1"/><stop offset="0.76" stop-color="#70789c"/><stop offset="0.85" stop-color="#777ea2"/><stop offset="0.99" stop-color="#898eb3"/><stop offset="1" stop-color="#8b90b5"/></linearGradient><linearGradient id="linear-gradient-59" x1="2112.71" y1="5437.1" x2="2120.69" y2="5437.1" gradientTransform="matrix(-0.47, 0.88, 0.88, 0.47, -3600.84, -4023.24)" gradientUnits="userSpaceOnUse"><stop offset="0.01" stop-color="#c1a1d5"/><stop offset="0.05" stop-color="#c8abda"/><stop offset="0.11" stop-color="#dac6e6"/><stop offset="0.2" stop-color="#f7f2f9"/><stop offset="0.22" stop-color="#fff"/><stop offset="0.25" stop-color="#f9f5fb"/><stop offset="0.3" stop-color="#e9dbf2"/><stop offset="0.36" stop-color="#d1b4e3"/><stop offset="0.43" stop-color="#b395d6"/><stop offset="0.49" stop-color="#9c7dcb"/><stop offset="0.56" stop-color="#8e6ec5"/><stop offset="0.61" stop-color="#8969c3"/><stop offset="0.76" stop-color="#9471c6"/><stop offset="1" stop-color="#b086cc"/></linearGradient><linearGradient id="linear-gradient-60" x1="3879.06" y1="4146.85" x2="3891.03" y2="4147.66" gradientTransform="matrix(0, 1, 1, 0, -3982.25, -3474.69)" xlink:href="#linear-gradient-59"/><radialGradient id="radial-gradient-21" cx="180.22" cy="410.2" r="2.52" gradientTransform="matrix(-1, 0, 0, 1, 347.08, 0)" gradientUnits="userSpaceOnUse"><stop offset="0" stop-color="#b4299a"/><stop offset="0.12" stop-color="#8a2076"/><stop offset="0.26" stop-color="#601652"/><stop offset="0.4" stop-color="#3e0e35"/><stop offset="0.55" stop-color="#23081e"/><stop offset="0.69" stop-color="#0f030d"/><stop offset="0.84" stop-color="#040103"/><stop offset="1"/></radialGradient><radialGradient id="radial-gradient-22" cx="1052.04" cy="6899.73" r="14.26" gradientTransform="matrix(-0.74, 0.68, 0.26, 0.28, -784.92, -2212.15)" gradientUnits="userSpaceOnUse"><stop offset="0"/><stop offset="1" stop-color="#fff"/></radialGradient><radialGradient id="radial-gradient-23" cx="1052.17" cy="6902.36" r="6.36" xlink:href="#radial-gradient-22"/><radialGradient id="radial-gradient-24" cx="1567.97" cy="-2781.25" r="8.68" gradientTransform="matrix(-1.44, -0.76, -0.1, 0.18, 2177.99, 2112)" gradientUnits="userSpaceOnUse"><stop offset="0" stop-color="#fff"/><stop offset="0.13" stop-color="#ff63ce"/><stop offset="1"/></radialGradient><linearGradient id="linear-gradient-61" x1="135.23" y1="431.34" x2="139.15" y2="438.22" gradientTransform="matrix(0.88, -0.48, -0.48, -0.88, 298.19, 878.76)" xlink:href="#linear-gradient-56"/><radialGradient id="radial-gradient-25" cx="137.71" cy="446.3" r="20.53" xlink:href="#radial-gradient-21"/><radialGradient id="radial-gradient-26" cx="-5611.93" cy="5118.75" r="5.2" gradientTransform="matrix(-0.15, 0.19, 0.78, 0.62, -4646.41, -1658.27)" gradientUnits="userSpaceOnUse"><stop offset="0" stop-color="#742a97"/><stop offset="0.04" stop-color="#6a268a"/><stop offset="0.19" stop-color="#4a1b60"/><stop offset="0.35" stop-color="#2f113d"/><stop offset="0.51" stop-color="#1b0a23"/><stop offset="0.67" stop-color="#0c040f"/><stop offset="0.83" stop-color="#030104"/><stop offset="1"/></radialGradient><radialGradient id="radial-gradient-27" cx="-3826.64" cy="6355.52" r="5.2" gradientTransform="matrix(-0.04, 0.14, 0.82, 0.25, -5160.77, -591.25)" xlink:href="#radial-gradient-26"/><linearGradient id="linear-gradient-62" x1="164.44" y1="327.98" x2="184.89" y2="304.13" gradientTransform="matrix(-1, 0, 0, 1, 347.08, 0)" gradientUnits="userSpaceOnUse"><stop offset="0" stop-color="#b086cc"/><stop offset="0.04" stop-color="#a37cbd"/><stop offset="0.17" stop-color="#785b8b"/><stop offset="0.3" stop-color="#533f60"/><stop offset="0.44" stop-color="#35283e"/><stop offset="0.57" stop-color="#1e1723"/><stop offset="0.71" stop-color="#0d0a0f"/><stop offset="0.85" stop-color="#030204"/><stop offset="1"/></linearGradient><linearGradient id="linear-gradient-63" x1="191.65" y1="339.16" x2="213.52" y2="328.56" gradientTransform="matrix(-1, 0, 0, 1, 347.08, 0)" gradientUnits="userSpaceOnUse"><stop offset="0" stop-color="#9f79c8"/><stop offset="0.14" stop-color="#a580cb"/><stop offset="0.33" stop-color="#b492d3"/><stop offset="0.55" stop-color="#cdb0e1"/><stop offset="0.58" stop-color="#d1b4e3"/><stop offset="0.76" stop-color="#dbc4e9"/><stop offset="1" stop-color="#ebdef3"/></linearGradient><linearGradient id="linear-gradient-64" x1="134.42" y1="342.44" x2="190.3" y2="304.87" xlink:href="#linear-gradient-63"/><linearGradient id="linear-gradient-65" x1="179.7" y1="292.31" x2="165.99" y2="312.34" xlink:href="#linear-gradient-63"/><radialGradient id="radial-gradient-28" cx="95.95" cy="423.14" r="32.2" gradientTransform="matrix(-1, 0, 0, 1, 347.08, 0)" xlink:href="#radial-gradient"/><radialGradient id="radial-gradient-29" cx="100.2" cy="418.03" r="9.94" gradientTransform="matrix(-0.97, -0.26, -0.26, 0.97, 451.21, 39.82)" xlink:href="#radial-gradient-8"/></defs><title>svg5</title><g class="cls-1"><g id="Layer_2" data-name="Layer 2"><g id="Layer_1-2" data-name="Layer 1"><path class="cls-2" d="M1.3,429.51,208,612.83a61.12,61.12,0,0,1,5.18,86.27L.13,939.39"/><path class="cls-3" d="M660.05,116.42l-41.21-27A14,14,0,0,1,614.78,70l45.8-70"/><path class="cls-4" d="M660.76,994.55,464.07,820.13a61.1,61.1,0,0,1-5.18-86.26l201.27-227"/><path class="cls-5" d="M.13,75.79l327.5,290.42a61.12,61.12,0,0,1,5.18,86.27L.13,827.64"/><polyline class="cls-6" points="660.2 235.96 374.08 48.7 375.32 46.81 660.16 233.23"/><polyline class="cls-6" points="660.16 259.41 594.73 216.59 595.98 214.69 660.16 256.7"/><path class="cls-6" d="M660.16,854.07,270.89,599.3a1.13,1.13,0,0,1-.33-1.57h0a1.13,1.13,0,0,1,1.57-.33l388,254"/><polyline class="cls-7" points="660.16 829.83 369.07 639.31 370.32 637.42 660.16 827.12"/><path class="cls-8" d="M0,447C21.28,494,67.84,526.5,121.86,526.5c74.12,0,134.2-61.28,134.2-136.87S196,252.75,121.86,252.75C68,252.75,21.47,285.17.13,331.94"/><path class="cls-9" d="M97.19,449c0,1.31.94,2.68,2.81,3.76l26.92,25.69c3.4,2,8.55,2.18,11.5.48l49-28.44a3.35,3.35,0,0,0,2-3.11,1.21,1.21,0,0,1,0,.2v3.7a3.43,3.43,0,0,1-2,2.84l-49,28.44c-2.95,1.7-8.1,1.49-11.5-.48L100,456.34c-1.89-1.09-2.85-2.49-2.82-3.81C97.19,452.3,97.15,449.86,97.19,449Z"/><g class="cls-10"><path class="cls-11" d="M133.42,482a14.19,14.19,0,0,0,7.06-1.7l49-28.44a7.47,7.47,0,0,0,4-6.45c0-2.86-1.77-5.53-4.87-7.32l-43-16.53a17.38,17.38,0,0,0-8.56-2.17,14,14,0,0,0-7.05,1.7L97.12,440.41a7.44,7.44,0,0,0-4.05,6.44c0,2.87,1.78,5.53,4.87,7.32l26.92,25.69A17.28,17.28,0,0,0,133.42,482Z"/><path class="cls-12" d="M130.22,421.45,97.66,440.52l-.39.23a6.8,6.8,0,0,0-3.57,6.44c.15,2.6,2.1,5.5,4.92,7.12l26.43,25.23a16.55,16.55,0,0,0,8.83,2,15,15,0,0,0,6.92-1.84l48.46-28.15a7.07,7.07,0,0,0,3.86-6.14c0-2.72-1.71-5.26-4.69-7L145.72,422a18,18,0,0,0-3.07-1.33,18.37,18.37,0,0,0-5.42-.89A13.75,13.75,0,0,0,130.22,421.45Z"/><path class="cls-13" d="M130.4,421.77l-32.59,19.1-.39.23a6.21,6.21,0,0,0-3.09,6.44c.27,2.32,2.42,5.45,5,6.91l25.94,24.76a15.71,15.71,0,0,0,9.1,1.87,16.1,16.1,0,0,0,6.79-2l47.95-27.85a6.69,6.69,0,0,0,3.67-5.85c0-2.56-1.64-5-4.49-6.62L145.8,422.45a20.53,20.53,0,0,0-3.06-1.3,18.34,18.34,0,0,0-5.36-1A13.55,13.55,0,0,0,130.4,421.77Z"/><path class="cls-14" d="M130.59,422.1,98,441.21s-.36.21-.39.24c-2.56,1.55-3.5,4-2.61,6.43,0,2.08,2.75,5.41,5,6.71l25.46,24.3a15.07,15.07,0,0,0,9.37,1.71,17.46,17.46,0,0,0,6.65-2.12l47.45-27.55a6.34,6.34,0,0,0,3.48-5.55c0-2.42-1.58-4.7-4.31-6.27l-42.18-16.23a23.86,23.86,0,0,0-3-1.29,18.19,18.19,0,0,0-5.31-1A13.3,13.3,0,0,0,130.59,422.1Z"/><path class="cls-15" d="M130.78,422.42,98.11,441.56l-.39.23c-2.55,1.58-3.31,4.09-2.13,6.43,0,1.82,3.07,5.37,5,6.51l25,23.84a14.62,14.62,0,0,0,9.63,1.56c1.71,0,5.3-1.56,6.52-2.27L188.7,450.6a5.92,5.92,0,0,0,3.29-5.24c0-2.27-1.51-4.43-4.12-5.93L146,423.31a28.35,28.35,0,0,0-3-1.27,18.31,18.31,0,0,0-5.26-1.09A13,13,0,0,0,130.78,422.42Z"/><path class="cls-16" d="M131,422.74,98.26,441.9l-.39.24c-2.54,1.6-3.13,4.15-1.65,6.42,0,1.56,3.4,5.34,5.09,6.31l24.48,23.37a14.21,14.21,0,0,0,9.91,1.41c1.46,0,5.34-1.8,6.39-2.41l46.42-27a5.58,5.58,0,0,0,3.11-4.95c-.05-2.12-1.45-4.15-3.93-5.58l-41.65-16a31.28,31.28,0,0,0-3-1.24,17.5,17.5,0,0,0-5.2-1.15A12.74,12.74,0,0,0,131,422.74Z"/><path class="cls-17" d="M131.15,423.07,98.41,442.25l-.39.23c-2.54,1.62-2.94,4.21-1.17,6.42,0,1.3,3.72,5.3,5.13,6.11l24,22.91a13.81,13.81,0,0,0,10.17,1.25c1.22,0,5.38-2,6.26-2.55L188.33,450a5.19,5.19,0,0,0,2.91-4.65c-.06-2-1.38-3.87-3.74-5.23l-41.38-15.92c-.43-.25-2.51-1-3-1.23a17.94,17.94,0,0,0-5.15-1.21A12.41,12.41,0,0,0,131.15,423.07Z"/><path class="cls-18" d="M131.34,423.39l-32.77,19.2-.4.24c-2.53,1.64-2.76,4.27-.69,6.41,0,1.05,4,5.26,5.17,5.91l23.52,22.45a13.52,13.52,0,0,0,10.43,1.09c1,0,5.43-2.28,6.13-2.69l45.41-26.37a4.83,4.83,0,0,0,2.73-4.35c-.08-1.82-1.32-3.59-3.56-4.88L146.2,424.59c-.34-.2-2.6-1.06-3-1.21a17.46,17.46,0,0,0-5.09-1.28A12.09,12.09,0,0,0,131.34,423.39Z"/><path class="cls-19" d="M131.52,423.71l-32.8,19.22c-.1.06-.3.18-.39.25-2.54,1.66-2.58,4.33-.22,6.41,0,.78,4.37,5.22,5.22,5.7l23,22a13.23,13.23,0,0,0,10.7.94c.73,0,5.47-2.52,6-2.82L188,449.31a4.46,4.46,0,0,0,2.55-4.05c-.09-1.67-1.26-3.32-3.37-4.54L146.28,425c-.26-.15-2.68-1.07-3-1.19a17.91,17.91,0,0,0-5.05-1.34A12,12,0,0,0,131.52,423.71Z"/><path class="cls-20" d="M131.71,424,98.87,443.28l-.39.24c-2.53,1.69-2.4,4.4.26,6.41,0,.52,4.7,5.18,5.26,5.5L126.54,477c3.23,1.86,8,2.18,11,.78a59.5,59.5,0,0,0,5.86-3L187.77,449a4.06,4.06,0,0,0,2.35-3.74c-.1-1.53-1.2-3.05-3.18-4.19l-40.58-15.61c-.17-.1-2.77-1.09-3-1.17a17.17,17.17,0,0,0-5-1.4A11.6,11.6,0,0,0,131.71,424Z"/><path class="cls-21" d="M131.9,424.36,99,443.62l-.39.25c-2.52,1.71-2.21,4.46.74,6.4a69.73,69.73,0,0,0,5.3,5.3l22.06,21.06c3.32,1.91,8.28,2.17,11.24.63.24,0,5.55-3,5.73-3.11l43.88-25.49a3.69,3.69,0,0,0,2.17-3.45c-.11-1.37-1.14-2.76-3-3.84l-40.31-15.51c-.08-.05-2.85-1.1-2.95-1.14a17.09,17.09,0,0,0-4.93-1.47A11.39,11.39,0,0,0,131.9,424.36Z"/><path d="M138.42,476.78l49-28.44c3-1.71,2.58-4.68-.82-6.65l-43-16.53c-3.41-2-8.56-2.18-11.51-.47L99.17,444c-3,1.7-2.58,4.67.83,6.64l26.92,25.69C130.32,478.27,135.47,478.48,138.42,476.78Z"/></g><path class="cls-22" d="M138.42,476.71l49-28.44a3.43,3.43,0,0,0,2-2.83v-3.7c0-1.29-1,.95-2.81-.11l-43-16.54c-3.41-2-8.56-2.18-11.51-.47L99.17,443.9c-1,.57-1.7-1.84-2-1.08-.09.26,0,3.64,0,3.91,0,1.32.93,2.72,2.82,3.81l26.92,25.69C130.32,478.2,135.47,478.41,138.42,476.71Z"/><path class="cls-23" d="M138.42,473.08l49-28.44c3-1.7,2.58-4.68-.82-6.65l-43-16.53c-3.41-2-8.56-2.18-11.51-.47L99.17,440.27c-3,1.7-2.58,4.68.83,6.64l26.92,25.69C130.32,474.57,135.47,474.78,138.42,473.08Z"/><path class="cls-24" d="M99.17,440.27,132.08,421c2.95-1.71,8.1-1.49,11.51.47l21.65,8.33a6.05,6.05,0,0,1-.67.47l-49,28.44a8.66,8.66,0,0,1-2.34.87L100,446.91C96.59,445,96.22,442,99.17,440.27Z"/><path class="cls-25" d="M100,446.29,126.92,472c3.4,2,8.55,2.17,11.5.47l49-28.44a3.51,3.51,0,0,0,2-2.61,3.31,3.31,0,0,1-2,3.23l-49,28.44c-2.95,1.7-8.1,1.49-11.5-.48L100,446.91c-2-1.15-2.94-2.64-2.8-4A5,5,0,0,0,100,446.29Z"/><ellipse class="cls-26" cx="131.17" cy="475.9" rx="16.14" ry="13.81" transform="translate(-358.86 416.33) rotate(-67.66)"/><ellipse class="cls-27" cx="143.5" cy="470.12" rx="59.68" ry="24.18" transform="translate(-141.9 69.93) rotate(-18.52)"/><path class="cls-28" d="M74.44,473.24l120.27-69.5c6.15-3.55,11.14-13.07,11.14-21.27v-92c0-8.2-5-12-11.14-8.42L74.44,351.57c-6.15,3.55-11.13,13.07-11.13,21.27v92C63.31,473,68.29,476.79,74.44,473.24Z"/><path class="cls-29" d="M73,466.83l118.57-68.5c4.95-3.15,8-9.43,8-15.86V289.88a2,2,0,0,0-3-1.7l-.35.21L77.57,357c-5.89,3.4-8,9.43-8,15.86v92.29A2.13,2.13,0,0,0,72.75,467Z"/><path class="cls-30" d="M69.56,372.84v92.29A2.13,2.13,0,0,0,72.75,467l.26-.15,118.57-68.5c4.95-3.15,8-9.43,8-15.86V289.88a2,2,0,0,0-3-1.7l-.35.21L77.57,357C71.68,360.38,69.56,366.41,69.56,372.84Zm1.25,0c0-4.8,1.28-11.26,7.39-14.78l119.05-68.8a.81.81,0,0,1,.36-.1.73.73,0,0,1,.73.72v92.59c0,6.12-2.91,11.93-7.38,14.78L72.13,465.9a1,1,0,0,1-.43.11.88.88,0,0,1-.89-.88Z"/><path class="cls-31" d="M71.29,349.89,191.56,280.4c2.43-1.41,4.68-1.67,6.51-1,.23.09,3.34,1.74,3.56,1.86h0c-1.9-.92-4.31-.75-6.93.76L74.44,351.57c-6.15,3.55-11.13,13.07-11.13,21.27v92c0,5.12,1.94,8.51,4.89,9.47a1.86,1.86,0,0,1-1-.33c-.14-.08-3.51-2-3.65-2.08-2.11-1.48-3.43-4.52-3.43-8.74v-92C60.15,363,65.14,353.44,71.29,349.89Z"/><path class="cls-32" d="M73.91,351.3l120.27-69.5c2.52-1.45,4.84-1.66,6.7-.85a8.22,8.22,0,0,0-5.37,1.26L75.24,351.7c-6.15,3.55-11.13,13.07-11.13,21.27v92c0,4.84,1.74,8.12,4.43,9.28-3.44-.55-5.77-4.08-5.77-9.68v-92C62.77,364.37,67.76,354.85,73.91,351.3Z"/><ellipse class="cls-33" cx="65.61" cy="360.43" rx="16.14" ry="12.6" transform="translate(-292.71 284.11) rotate(-67.66)"/><ellipse class="cls-34" cx="186.95" cy="322.2" rx="45.09" ry="43.44" transform="translate(-182.13 372.64) rotate(-67.66)"/><circle class="cls-35" cx="82.77" cy="329.21" r="9.94" transform="translate(-82.63 32.78) rotate(-15.05)"/><circle class="cls-36" cx="131.8" cy="489.11" r="9.94" transform="translate(-109.51 43.73) rotate(-13.37)"/><path class="cls-37" d="M48.07,455.54h.66v-92c0-8.08,4.92-17.49,11-21L180,273.08l-.33-.57L59.37,342c-6.23,3.6-11.3,13.27-11.3,21.56Z"/><path class="cls-38" d="M133.43,489.46a10.49,10.49,0,0,0,5.16-1.19l49-28.44-.33-.57-49,28.44c-2.85,1.64-7.84,1.43-11.14-.46l-26.89-25.66-.46.48,27,25.74A13.73,13.73,0,0,0,133.43,489.46Z"/><polygon class="cls-39" points="183.32 386.84 196.84 378.96 211.77 387.47 211.77 402.33 198.3 410.12 198.3 410.13 198.29 410.12 198.28 410.13 198.28 410.12 183.32 401.69 183.32 386.84"/><g class="cls-40"><polygon class="cls-41" points="198.3 395.39 198.3 410.13 192.17 406.59 192.17 391.74 198.3 395.39"/><polygon class="cls-42" points="198.28 395.39 198.28 410.13 211.77 402.33 211.77 387.47 198.28 395.39"/><polygon class="cls-43" points="211.77 387.47 198.28 395.39 192.17 391.74 205.69 383.86 211.77 387.47"/></g><polygon class="cls-44" points="183.32 367.57 196.84 359.7 211.77 368.21 211.77 383.06 198.3 390.85 198.3 390.86 198.29 390.86 198.28 390.86 198.28 390.85 183.32 382.43 183.32 367.57"/><g class="cls-40"><polygon class="cls-45" points="198.3 376.12 198.3 390.86 192.17 387.32 192.17 372.47 198.3 376.12"/><polygon class="cls-46" points="198.28 376.12 198.28 390.86 211.77 383.06 211.77 368.21 198.28 376.12"/><polygon class="cls-47" points="211.77 368.21 198.28 376.12 192.17 372.47 205.69 364.6 211.77 368.21"/></g><polygon class="cls-48" points="183.32 348.13 196.84 340.26 211.77 348.77 211.77 363.62 198.3 371.41 198.3 371.42 198.29 371.41 198.28 371.42 198.28 371.41 183.32 362.98 183.32 348.13"/><g class="cls-40"><polygon class="cls-49" points="198.3 356.68 198.3 371.42 192.17 367.88 192.17 353.03 198.3 356.68"/><polygon class="cls-50" points="198.28 356.68 198.28 371.42 211.77 363.62 211.77 348.77 198.28 356.68"/><polygon class="cls-51" points="211.77 348.77 198.28 356.68 192.17 353.03 205.69 345.15 211.77 348.77"/></g><polygon class="cls-52" points="201.31 366.85 208.86 362.49 208.86 353.83 201.31 358.19 201.31 366.85"/><path class="cls-52" d="M200.58,382.06c0,2.66,1.88,3.74,4.21,2.4a9.31,9.31,0,0,0,4.21-7.27c0-2.67-1.89-3.74-4.21-2.4A9.29,9.29,0,0,0,200.58,382.06Z"/><polygon class="cls-52" points="207.38 402.29 209.75 396.2 207.38 392.86 202.64 395.6 200.27 401.68 202.64 405.02 207.38 402.29"/><polygon class="cls-53" points="70.21 426.68 83.73 418.81 98.66 427.32 98.66 442.17 85.18 449.96 85.18 449.97 85.17 449.96 85.17 449.97 85.17 449.96 70.21 441.54 70.21 426.68"/><g class="cls-40"><polygon class="cls-54" points="85.18 435.23 85.18 449.97 79.06 446.44 79.06 431.58 85.18 435.23"/><polygon class="cls-55" points="85.17 435.23 85.17 449.97 98.66 442.17 98.66 427.32 85.17 435.23"/><polygon class="cls-56" points="98.66 427.32 85.17 435.23 79.06 431.58 92.58 423.71 98.66 427.32"/></g><polygon class="cls-57" points="70.21 400.14 83.73 392.26 98.66 400.77 98.66 415.63 85.18 423.42 85.18 423.43 85.17 423.42 85.17 423.43 85.17 423.42 70.21 414.99 70.21 400.14"/><g class="cls-40"><polygon class="cls-58" points="85.18 408.69 85.18 423.43 79.06 419.89 79.06 405.03 85.18 408.69"/><polygon class="cls-59" points="85.17 408.69 85.17 423.43 98.66 415.63 98.66 400.77 85.17 408.69"/><polygon class="cls-60" points="98.66 400.77 85.17 408.69 79.06 405.03 92.58 397.16 98.66 400.77"/></g><polygon class="cls-61" points="70.21 380.37 83.73 372.5 98.66 381.01 98.66 395.86 85.18 403.65 85.18 403.66 85.17 403.65 85.17 403.66 85.17 403.65 70.21 395.23 70.21 380.37"/><g class="cls-40"><polygon class="cls-62" points="85.18 388.92 85.18 403.66 79.06 400.12 79.06 385.27 85.18 388.92"/><polygon class="cls-63" points="85.17 388.92 85.17 403.66 98.66 395.86 98.66 381.01 85.17 388.92"/><polygon class="cls-64" points="98.66 381.01 85.17 388.92 79.06 385.27 92.58 377.4 98.66 381.01"/></g><polygon class="cls-65" points="70.21 360.13 83.73 352.26 98.66 360.77 98.66 375.63 85.18 383.41 85.18 383.42 85.17 383.42 85.17 383.42 85.17 383.41 70.21 374.99 70.21 360.13"/><g class="cls-40"><polygon class="cls-66" points="85.18 368.68 85.18 383.42 79.06 379.89 79.06 365.03 85.18 368.68"/><polygon class="cls-67" points="85.17 368.68 85.17 383.42 98.66 375.63 98.66 360.77 85.17 368.68"/><polygon class="cls-68" points="98.66 360.77 85.17 368.68 79.06 365.03 92.58 357.16 98.66 360.77"/></g><g class="cls-10"><path class="cls-11" d="M213.15,512.46a8.79,8.79,0,0,0,4.38-1.06l19.69-38.15a4.65,4.65,0,0,0,2.52-4,5.39,5.39,0,0,0-3-4.55L225,460.41a10.82,10.82,0,0,0-5.33-1.35,8.79,8.79,0,0,0-4.38,1.05L164.16,491.4a4.66,4.66,0,0,0-2.52,4,5.39,5.39,0,0,0,3,4.55l43.15,11.14A10.72,10.72,0,0,0,213.15,512.46Z"/><path class="cls-12" d="M236.53,464.8l-11.6-4.25a9,9,0,0,0-1-.48,11,11,0,0,0-4.3-.88,9.21,9.21,0,0,0-3.58.68c-.25.11-.54.26-.76.38L164.55,491.3a5.16,5.16,0,0,0-2.63,3.73s0,.09,0,.13c-.15,1.72.87,3.39,2.81,4.51l43.15,11.14a10.6,10.6,0,0,0,5.2,1.32,8.53,8.53,0,0,0,4.28-1l19.51-37.81a5.17,5.17,0,0,0,2.46-3.78l0-.21C239.49,467.58,238.46,465.91,236.53,464.8Z"/><path class="cls-13" d="M236.34,464.9l-11.51-4.21a9.85,9.85,0,0,0-1-.47,10.83,10.83,0,0,0-4.26-.89A9,9,0,0,0,216,460c-.22.1-.55.27-.75.38L164.94,491.2a5.75,5.75,0,0,0-2.74,3.58l0,.13c-.3,1.65.65,3.33,2.6,4.46l43.15,11.14A10.32,10.32,0,0,0,213,511.8a8.41,8.41,0,0,0,4.17-1l19.34-37.47a5.85,5.85,0,0,0,2.41-3.78c0-.07,0-.14,0-.21C239.24,467.7,238.29,466,236.34,464.9Z"/><path class="cls-14" d="M236.16,465l-11.42-4.19c-.23-.13-.74-.34-1-.45a10.4,10.4,0,0,0-4.22-.9,8.62,8.62,0,0,0-3.51.68c-.2.09-.56.28-.74.39l-49.95,30.55a6.72,6.72,0,0,0-2.86,3.45.53.53,0,0,1,0,.12c-.45,1.58.41,3.28,2.38,4.41L208,510.21a10,10,0,0,0,4.94,1.26,8.06,8.06,0,0,0,4.07-1l19.16-37.12a6.79,6.79,0,0,0,2.36-3.79,1.39,1.39,0,0,1,.06-.19C239,467.82,238.12,466.14,236.16,465Z"/><path class="cls-15" d="M236,465.11,224.65,461c-.2-.11-.77-.34-1-.44a10.39,10.39,0,0,0-4.18-.92,8.47,8.47,0,0,0-3.48.69c-.17.08-.57.3-.73.39L165.71,491c-1,.57-2.93,2.3-3,3.3,0,0,0,.08,0,.11-.61,1.53.18,3.23,2.16,4.37L208,509.91a9.69,9.69,0,0,0,4.81,1.23,7.93,7.93,0,0,0,4-.93l19-36.78a6.7,6.7,0,0,0,2.31-3.78,1.07,1.07,0,0,0,.07-.19C238.74,467.94,237.94,466.25,236,465.11Z"/><path class="cls-16" d="M235.79,465.22l-11.24-4.12c-.17-.1-.8-.35-1-.43a10.24,10.24,0,0,0-4.14-.93,8.38,8.38,0,0,0-3.46.69l-.7.39L166.1,490.89c-.84.49-3,2.3-3.07,3.15l-.06.11c-.75,1.47-.05,3.18,1.95,4.33l43.15,11.14a9.63,9.63,0,0,0,4.68,1.2,7.71,7.71,0,0,0,3.86-.91l18.81-36.43a7.77,7.77,0,0,0,2.26-3.78l.09-.18C238.49,468.05,237.77,466.36,235.79,465.22Z"/><path class="cls-17" d="M235.61,465.32l-11.15-4.08c-.14-.08-.83-.35-1-.42a10,10,0,0,0-4.1-.94,8,8,0,0,0-3.42.69l-.69.39-48.77,29.83c-.7.4-3.16,2.29-3.18,3a.36.36,0,0,0-.07.1c-.91,1.4-.28,3.12,1.72,4.28l43.15,11.14a9.42,9.42,0,0,0,4.56,1.17,7.55,7.55,0,0,0,3.76-.87l18.63-36.1a9,9,0,0,0,2.21-3.78l.1-.16C238.24,468.17,237.6,466.47,235.61,465.32Z"/><path class="cls-18" d="M235.43,465.43l-11.06-4.05c-.12-.07-.87-.35-1-.41a10,10,0,0,0-4.06-1,8,8,0,0,0-3.39.7l-.68.39-48.37,29.58c-.56.33-3.28,2.3-3.29,2.87a.39.39,0,0,0-.08.1c-1.07,1.33-.51,3.07,1.5,4.23L208.16,509a9.18,9.18,0,0,0,4.43,1.14,7.31,7.31,0,0,0,3.66-.84l18.45-35.75a11,11,0,0,0,2.15-3.78,1,1,0,0,0,.13-.16C238,468.29,237.42,466.58,235.43,465.43Z"/><path class="cls-19" d="M235.24,465.53l-11-4c-.08,0-.89-.36-1-.4a9.82,9.82,0,0,0-4-1,7.73,7.73,0,0,0-3.36.7l-.67.39-48,29.34c-.42.24-3.39,2.29-3.41,2.72l-.09.09c-1.22,1.28-.74,3,1.29,4.19l43.15,11.15a9.12,9.12,0,0,0,4.3,1.1,7.08,7.08,0,0,0,3.55-.81l18.28-35.4a14.34,14.34,0,0,0,2.1-3.78l.15-.15C237.75,468.41,237.25,466.69,235.24,465.53Z"/><path class="cls-20" d="M235.06,465.64l-10.88-4-1-.38a9.55,9.55,0,0,0-4-1,7.66,7.66,0,0,0-3.32.71l-.66.39-47.57,29.1c-.28.16-3.51,2.29-3.52,2.58l-.1.08c-1.39,1.21-1,3,1.07,4.15l43.15,11.14a8.76,8.76,0,0,0,4.17,1.07,6.82,6.82,0,0,0,3.45-.77L234,473.66a21,21,0,0,0,2.05-3.78l.16-.13C237.51,468.54,237.08,466.8,235.06,465.64Z"/><path class="cls-21" d="M234.88,465.74l-10.8-3.95-1-.37a9.38,9.38,0,0,0-3.94-1,7.38,7.38,0,0,0-3.29.71l-.65.39-47.17,28.85c-.14.08-3.63,2.3-3.63,2.44l-.11.08c-1.55,1.14-1.21,2.91.85,4.1l43.15,11.14a8.51,8.51,0,0,0,4,1,6.66,6.66,0,0,0,3.35-.74l17.92-34.72a42.67,42.67,0,0,0,2-3.78l.18-.13C237.27,468.66,236.91,466.91,234.88,465.74Z"/><path d="M215.51,508.13,235.21,470c1.83-1.06,1.6-2.91-.52-4.13L223,461.57a8,8,0,0,0-7.15-.3L164.7,492.56c-1.84,1.06-1.61,2.91.51,4.13l43.15,11.14A7.92,7.92,0,0,0,215.51,508.13Z"/></g><polygon class="cls-69" points="181.27 504.21 239.17 462.64 221.56 454.49 163.66 496.06 181.27 504.21"/><polygon class="cls-70" points="225.08 470.51 231.62 465.81 217.82 459.42 211.28 464.12 225.08 470.51"/><polygon class="cls-71" points="216.51 476.66 223.05 471.96 209.25 465.57 202.71 470.27 216.51 476.66"/><polygon class="cls-72" points="207.94 482.81 214.48 478.12 200.68 471.73 194.14 476.42 207.94 482.81"/><polygon class="cls-73" points="199.37 488.97 205.91 484.27 192.11 477.88 185.57 482.57 199.37 488.97"/><polygon class="cls-74" points="190.8 495.12 197.34 490.42 183.54 484.03 177 488.73 190.8 495.12"/><polygon class="cls-75" points="182.23 501.27 188.77 496.58 174.97 490.19 168.43 494.88 182.23 501.27"/><polygon class="cls-76" points="181.27 504.21 239.17 462.64 221.56 454.49 176.37 501.94 181.27 504.21"/><polygon class="cls-77" points="198.27 507.63 241.84 460.62 221.89 454.51 178.32 501.52 198.27 507.63"/><polygon class="cls-6" points="230.52 469.85 235.44 464.54 219.8 459.75 214.88 465.06 230.52 469.85"/><polygon class="cls-78" points="224.07 476.81 228.99 471.5 213.35 466.71 208.43 472.02 224.07 476.81"/><polygon class="cls-79" points="217.62 483.77 222.54 478.46 206.9 473.67 201.98 478.98 217.62 483.77"/><polygon class="cls-80" points="211.17 490.73 216.09 485.42 200.45 480.63 195.53 485.94 211.17 490.73"/><polygon class="cls-81" points="204.72 497.69 209.64 492.38 194 487.59 189.08 492.9 204.72 497.69"/><polygon class="cls-82" points="198.27 504.65 203.19 499.34 187.55 494.55 182.63 499.86 198.27 504.65"/><polygon class="cls-83" points="198.27 507.63 241.84 460.62 221.89 454.51 192.09 505.82 198.27 507.63"/><polygon class="cls-84" points="215.71 509.55 243.85 458.81 222.29 454.89 194.15 505.63 215.71 509.55"/><polygon class="cls-85" points="235.6 469.06 238.78 463.33 221.88 460.26 218.7 465.99 235.6 469.06"/><polygon class="cls-86" points="231.43 476.57 234.61 470.84 217.71 467.77 214.53 473.5 231.43 476.57"/><polygon class="cls-87" points="227.26 484.08 230.44 478.35 213.54 475.28 210.37 481.01 227.26 484.08"/><polygon class="cls-88" points="223.1 491.6 226.28 485.86 209.38 482.79 206.2 488.52 223.1 491.6"/><polygon class="cls-89" points="218.93 499.11 222.11 493.37 205.21 490.31 202.03 496.04 218.93 499.11"/><polygon class="cls-90" points="214.77 506.62 217.94 500.88 201.05 497.81 197.87 503.55 214.77 506.62"/><g class="cls-10"><path class="cls-11" d="M210.39,493.15a9.17,9.17,0,0,0,4.57-1.1l60.28-34.65a4.84,4.84,0,0,0,2.63-4.18,5.64,5.64,0,0,0-3.17-4.75l-34.32-19.78a11.27,11.27,0,0,0-5.55-1.41,9.18,9.18,0,0,0-4.58,1.1L170,463a4.85,4.85,0,0,0-2.62,4.18,5.63,5.63,0,0,0,3.16,4.75l34.32,19.78A11.28,11.28,0,0,0,210.39,493.15Z"/><path class="cls-12" d="M230.3,428.49,170,463.14a4.42,4.42,0,0,0-2.41,4.14,5.31,5.31,0,0,0,.2,1,6.7,6.7,0,0,0,3.09,3.52l34,19.59a11.15,11.15,0,0,0,7.76,1.11,9.35,9.35,0,0,0,2.32-.91l60.09-34.54a4.43,4.43,0,0,0,2.42-4.13,5.09,5.09,0,0,0-.25-1.22,6.81,6.81,0,0,0-3-3.34l-33.91-19.54a9.89,9.89,0,0,0-1.35-.65,11.48,11.48,0,0,0-4.12-.79A9,9,0,0,0,230.3,428.49Z"/><path class="cls-13" d="M230.35,428.6l-60.27,34.65a4,4,0,0,0-2.2,4.1,6.83,6.83,0,0,0,.25,1,7.61,7.61,0,0,0,3.16,3.39l33.65,19.39a10.69,10.69,0,0,0,5.53,1.33,10.81,10.81,0,0,0,2.19-.3,10.46,10.46,0,0,0,2.3-.94l59.9-34.43a4,4,0,0,0,2.21-4.08,5.23,5.23,0,0,0-.31-1.16,7.7,7.7,0,0,0-3.07-3.21L240.2,429a10.93,10.93,0,0,0-1.33-.65,11.33,11.33,0,0,0-4.05-.81A8.8,8.8,0,0,0,230.35,428.6Z"/><path class="cls-14" d="M230.41,428.71l-60.28,34.65a3.64,3.64,0,0,0-2,4.06,8.6,8.6,0,0,0,.31.94,8.86,8.86,0,0,0,3.22,3.26L205,490.81a10.32,10.32,0,0,0,7.69.95,12.31,12.31,0,0,0,2.28-1l59.71-34.32a3.7,3.7,0,0,0,2-4,6.83,6.83,0,0,0-.38-1.1,8.75,8.75,0,0,0-3.12-3.07L240.12,429.2a14.51,14.51,0,0,0-1.31-.65,11.3,11.3,0,0,0-4-.84A8.55,8.55,0,0,0,230.41,428.71Z"/><path class="cls-15" d="M230.46,428.82l-60.28,34.65a3.35,3.35,0,0,0-1.77,4,9.65,9.65,0,0,0,.38.9,10.29,10.29,0,0,0,3.29,3.11l33,19a10,10,0,0,0,7.67.87,13.83,13.83,0,0,0,2.24-1l59.53-34.21a3.38,3.38,0,0,0,1.8-4,9.2,9.2,0,0,0-.45-1.05,10.35,10.35,0,0,0-3.16-2.94L240,429.37a14.14,14.14,0,0,0-1.29-.65,10.93,10.93,0,0,0-3.93-.86A8.35,8.35,0,0,0,230.46,428.82Z"/><path class="cls-16" d="M230.51,428.93l-60.28,34.65a3.07,3.07,0,0,0-1.55,4,4.24,4.24,0,0,0,.43.85c.2.78,2.48,2.47,3.36,3l32.62,18.8a10.05,10.05,0,0,0,5.49,1.21,10.64,10.64,0,0,0,2.15-.42,18.09,18.09,0,0,0,2.22-1l59.33-34.1a3.11,3.11,0,0,0,1.61-3.94c-.13-.34-.35-.64-.52-1a12.47,12.47,0,0,0-3.2-2.81l-32.23-18.57c-.23-.14-1-.55-1.26-.66a11.33,11.33,0,0,0-3.87-.88A8.26,8.26,0,0,0,230.51,428.93Z"/><path class="cls-17" d="M230.56,429l-60.28,34.65a2.83,2.83,0,0,0-1.34,3.94,4.6,4.6,0,0,0,.5.8c.16.65,2.69,2.42,3.42,2.84l32.28,18.61a9.86,9.86,0,0,0,5.48,1.17,10.4,10.4,0,0,0,2.13-.46,23.51,23.51,0,0,0,2.2-1l59.14-34a2.86,2.86,0,0,0,1.4-3.89,4.27,4.27,0,0,0-.58-.94c-.18-.62-2.55-2.27-3.25-2.67l-31.81-18.33c-.19-.12-1-.56-1.24-.66a11,11,0,0,0-3.81-.9A8.05,8.05,0,0,0,230.56,429Z"/><path class="cls-18" d="M230.61,429.15,170.33,463.8a2.63,2.63,0,0,0-1.12,3.9,3.85,3.85,0,0,0,.56.75c.13.53,2.9,2.37,3.48,2.71l31.94,18.41a9.67,9.67,0,0,0,5.47,1.13,10,10,0,0,0,2.11-.5c.31-.1,1.93-.94,2.18-1.08l58.95-33.89a2.65,2.65,0,0,0,1.19-3.84,4.27,4.27,0,0,0-.64-.88c-.15-.5-2.74-2.22-3.3-2.54l-31.39-18.09c-.15-.09-1-.58-1.22-.66a10.77,10.77,0,0,0-3.74-.93A7.87,7.87,0,0,0,230.61,429.15Z"/><path class="cls-19" d="M230.66,429.26l-60.28,34.65a2.46,2.46,0,0,0-.91,3.86,5.73,5.73,0,0,0,.62.71c.1.39,3.11,2.31,3.55,2.57l31.6,18.21a9.41,9.41,0,0,0,5.46,1.09,9.67,9.67,0,0,0,2.09-.54c.23-.08,2-1,2.16-1.11l58.76-33.78a2.48,2.48,0,0,0,1-3.8,4.43,4.43,0,0,0-.71-.82,19.81,19.81,0,0,0-3.35-2.4l-31-17.85-1.2-.66a10.58,10.58,0,0,0-3.68-.95A7.61,7.61,0,0,0,230.66,429.26Z"/><path class="cls-20" d="M230.71,429.37,170.43,464a2.31,2.31,0,0,0-.69,3.82,4.28,4.28,0,0,0,.68.66,30.41,30.41,0,0,0,3.62,2.43l31.25,18a9.29,9.29,0,0,0,5.45,1.05,9.63,9.63,0,0,0,2.07-.58c.16-.05,2-1.07,2.14-1.14l58.57-33.67a2.31,2.31,0,0,0,.78-3.75,4.75,4.75,0,0,0-.78-.77,30.13,30.13,0,0,0-3.38-2.27l-30.55-17.6c-.08-.05-1.09-.62-1.18-.66a10.39,10.39,0,0,0-3.62-1A7.5,7.5,0,0,0,230.71,429.37Z"/><path class="cls-21" d="M230.76,429.48l-60.28,34.65a2.19,2.19,0,0,0-.48,3.78,5.23,5.23,0,0,0,.75.61c0,.13,3.53,2.22,3.68,2.3l30.91,17.82a9.11,9.11,0,0,0,5.44,1,9.55,9.55,0,0,0,2.06-.62l2.1-1.17,58.39-33.56a2.19,2.19,0,0,0,.57-3.7,4.3,4.3,0,0,0-.84-.71c0-.13-3.29-2.06-3.43-2.14L239.5,430.38l-1.16-.65a10.24,10.24,0,0,0-3.55-1A7.23,7.23,0,0,0,230.76,429.48Z"/><path d="M212.86,488.64,273.14,454c1.91-1.1,1.67-3-.54-4.31L238.28,429.9a8.31,8.31,0,0,0-7.47-.31l-60.27,34.65c-1.92,1.1-1.68,3,.53,4.31l34.33,19.78A8.32,8.32,0,0,0,212.86,488.64Z"/></g><path class="cls-91" d="M204.48,488.24l-33.95-19.56a3.54,3.54,0,0,1-2-2.92c0-.09,0-2.2,0-2.29.11-1.27,1.09-.57,2.88-1.61l59.46-34.28c3.5-2,8.78-2.24,11.81-.49l34,19.56c1.35.78,2-.59,2,.5,0,.1,0,2.6,0,2.7-.11,1.27-1.08,2.58-2.88,3.62l-59.46,34.28C212.79,489.77,207.51,490,204.48,488.24Z"/><path class="cls-92" d="M204.48,485.94l-33.95-19.56c-3-1.75-2.64-4.8.85-6.82l59.46-34.28c3.5-2,8.78-2.24,11.81-.49l34,19.56c3,1.75,2.64,4.8-.85,6.82l-59.46,34.28C212.79,487.47,207.51,487.69,204.48,485.94Z"/><path class="cls-93" d="M170.53,466.08l33.95,19.56c3,1.75,8.31,1.53,11.81-.49l59.46-34.28c1.84-1.06,2.81-2.41,2.88-3.71.08,1.39-.9,2.86-2.88,4l-59.46,34.28c-3.5,2-8.78,2.24-11.81.49l-33.95-19.56a3.44,3.44,0,0,1-2-3.11A3.6,3.6,0,0,0,170.53,466.08Z"/><path class="cls-94" d="M173.31,460.54l59.23-34.15c2.56-1.48,6.44-1.64,8.66-.35l33.24,19.15c2.22,1.28,1.94,3.52-.62,5l-59.23,34.15c-2.56,1.48-6.44,1.64-8.66.36l-33.24-19.16C170.47,464.26,170.75,462,173.31,460.54Z"/><path class="cls-95" d="M179.66,457.5l53.76-31a8.34,8.34,0,0,1,7.55,0l32.63,18.8c2.1,1.21,2.11,3.16,0,4.36l-53.75,31Z"/><path d="M183.52,476l4.8,2.77h0a2.85,2.85,0,0,0-1.19-2.27l-2.42-1.4c-.66-.38-1.19,0-1.19.9Z"/><ellipse class="cls-96" cx="240.58" cy="470.68" rx="48.18" ry="19.52" transform="matrix(0.95, -0.32, 0.32, 0.95, -137.05, 100.79)"/><path class="cls-97" d="M200.66,483.18c-2.38,5.8-.29,12.16,4.67,14.2s10.92-1,13.3-6.81.3-12.15-4.67-14.19S203.05,477.38,200.66,483.18Z"/><path class="cls-98" d="M272.25,449.63a.18.18,0,0,0,.15-.08.17.17,0,0,0-.06-.23l-1.6-.94a.18.18,0,0,0-.24.06.18.18,0,0,0,.06.23l1.61.94A.11.11,0,0,0,272.25,449.63Z"/><path class="cls-98" d="M267.67,452.27a.16.16,0,0,0,.14-.09.17.17,0,0,0-.06-.23l-1.6-.94a.18.18,0,0,0-.23.06.16.16,0,0,0,.06.23l1.6.94Z"/><path class="cls-98" d="M263.08,454.9a.18.18,0,0,0,.15-.08.17.17,0,0,0-.06-.23l-1.6-.94a.18.18,0,0,0-.24.06.18.18,0,0,0,.06.23l1.61.94A.11.11,0,0,0,263.08,454.9Z"/><path class="cls-98" d="M258.5,457.54a.15.15,0,0,0,.14-.09.17.17,0,0,0-.06-.23l-1.6-.94a.17.17,0,0,0-.23.06.16.16,0,0,0,.06.23l1.6.94Z"/><path class="cls-98" d="M253.91,460.17a.18.18,0,0,0,.15-.08.16.16,0,0,0-.06-.23l-1.6-.94a.18.18,0,0,0-.24.06.18.18,0,0,0,.06.23l1.61.94Z"/><path class="cls-98" d="M249.33,462.81a.15.15,0,0,0,.14-.09.17.17,0,0,0-.06-.23l-1.6-.94a.17.17,0,1,0-.17.29l1.6.94A.16.16,0,0,0,249.33,462.81Z"/><path class="cls-98" d="M244.74,465.44a.18.18,0,0,0,.15-.08.16.16,0,0,0-.06-.23l-1.6-.95a.19.19,0,0,0-.24.06.19.19,0,0,0,.06.24l1.61.94Z"/><path class="cls-98" d="M240.16,468.07a.14.14,0,0,0,.14-.08.17.17,0,0,0-.06-.23l-1.6-.94a.17.17,0,0,0-.17.29l1.6.94A.15.15,0,0,0,240.16,468.07Z"/><path class="cls-98" d="M235.57,470.71a.17.17,0,0,0,.09-.32l-1.6-.94a.17.17,0,1,0-.18.3l1.61.94Z"/><path class="cls-98" d="M231,473.34a.16.16,0,0,0,.14-.08.17.17,0,0,0-.06-.23l-1.6-.94a.17.17,0,0,0-.17.29l1.6.94A.15.15,0,0,0,231,473.34Z"/><path class="cls-98" d="M226.4,476a.17.17,0,0,0,.09-.32l-1.6-.94a.19.19,0,0,0-.24.06.17.17,0,0,0,.06.23l1.61.94A.11.11,0,0,0,226.4,476Z"/><path class="cls-98" d="M221.82,478.61a.16.16,0,0,0,.14-.08.17.17,0,0,0-.06-.23l-1.6-.94a.17.17,0,1,0-.17.29l1.6.94A.15.15,0,0,0,221.82,478.61Z"/><path d="M178.63,463.18h0a4.42,4.42,0,0,1,4.73-.18l26.52,15.45a1.87,1.87,0,0,1,.12,3.15h0a4.87,4.87,0,0,1-5.19.19l-26.05-15.17A2,2,0,0,1,178.63,463.18Z"/><path class="cls-99" d="M178.63,462.41h0a4.42,4.42,0,0,1,4.73-.18l26.52,15.45a1.86,1.86,0,0,1,.12,3.14h0a4.85,4.85,0,0,1-5.19.19l-26.05-15.17A2,2,0,0,1,178.63,462.41Z"/><path d="M187,471.16l5.42-3.71a1.57,1.57,0,0,1,1.67-.06l6.58,3.83a.65.65,0,0,1,0,1.09l-5.42,3.7a1.55,1.55,0,0,1-1.67.07l-6.58-3.84A.64.64,0,0,1,187,471.16Z"/><path class="cls-100" d="M187,470.74l5.42-3.71a1.57,1.57,0,0,1,1.67-.06l6.58,3.83a.65.65,0,0,1,0,1.09l-5.42,3.7a1.55,1.55,0,0,1-1.67.06l-6.58-3.83A.64.64,0,0,1,187,470.74Z"/><path class="cls-101" d="M200.75,471.51l-5.42,3.71a1.57,1.57,0,0,1-1.67.06l-6.58-3.83a.62.62,0,0,1-.29-.37.63.63,0,0,0,.29.74l6.58,3.83a1.55,1.55,0,0,0,1.67-.06l5.42-3.7a.65.65,0,0,0,.25-.73A.62.62,0,0,1,200.75,471.51Z"/><polygon class="cls-102" points="181.9 468.43 181.9 467.64 186.98 464.33 187.33 464.52 182.32 467.85 182.32 468.67 181.9 468.43"/><polygon points="182.13 468.62 182.13 467.82 187.22 464.52 187.57 464.71 182.56 468.03 182.56 468.85 182.13 468.62"/><polygon class="cls-103" points="200.54 479.25 200.54 478.45 205.62 475.15 205.97 475.34 200.96 478.67 200.96 479.48 200.54 479.25"/><polygon points="200.77 479.44 200.77 478.64 205.85 475.34 206.2 475.53 201.19 478.85 201.19 479.67 200.77 479.44"/><path class="cls-104" d="M190.75,470.78l2.31-1.58a1.08,1.08,0,0,1,1.16-.05l2.9,1.7a.52.52,0,0,1,0,.89l-2.31,1.59a1.08,1.08,0,0,1-1.16,0l-2.9-1.69A.53.53,0,0,1,190.75,470.78Z"/><path class="cls-105" d="M168.5,467a3.58,3.58,0,0,0,2,2.8l14.33,8.25-1.78,1.28-12.55-7.23a3.55,3.55,0,0,1-2-2.92C168.49,469.12,168.49,467.47,168.5,467Z"/><path class="cls-106" d="M233.28,479.1l42.47-24.49c2.14-1.24,3.11-2.87,2.84-4.34a1.06,1.06,0,0,1,.05.32c0,.1,0,2.6,0,2.7-.11,1.27-1.08,2.58-2.88,3.62l-44,25.34Z"/><ellipse class="cls-107" cx="243.81" cy="428.38" rx="35.41" ry="34.11" transform="translate(-245.09 491.06) rotate(-67.66)"/><path class="cls-108" d="M156.94,358.51c0-4.8-3.39-6.73-7.56-4.32a16.68,16.68,0,0,0-7.57,13.05c0,4.79,3.39,6.72,7.57,4.31A16.67,16.67,0,0,0,156.94,358.51Zm-49,65.15v.73l64.63-37.31v-.27c-3.43-2.67-8.25-20.06-12.48-17.62-6.1,3.52-8.89,16.7-16.58,21.15S130.88,365.18,124,369.16C118.68,372.22,113.23,414.21,107.92,423.66Zm-.2-51.51v2.72l2.37-1.37v-1l11-6.45c-2.2,2.64-4.52,7.29-5.86,13.17l-1,.58a.32.32,0,0,0-.17.29v3a.33.33,0,0,0,.34.34.35.35,0,0,0,.17,0l2.59-1.5a.34.34,0,0,0,.16-.29v-3a.34.34,0,0,0-.16-.29.3.3,0,0,0-.34,0l-.77.44c1.72-7.12,4.63-11.59,6.69-13.43v.79l2.59-1.5V364a3.16,3.16,0,0,1,1.43.11c2.24.69,4.08,3.84,5.6,6.93l-.89.51a.34.34,0,0,0-.17.29v3a.34.34,0,0,0,.17.29.35.35,0,0,0,.17,0,.33.33,0,0,0,.17,0l2.59-1.5a.32.32,0,0,0,.17-.29v-3a.32.32,0,0,0-.17-.29.34.34,0,0,0-.34,0l-1.12.64c-1.64-3.35-3.51-6.48-6-7.24a4.16,4.16,0,0,0-1.21-.17l9.41-5.53V359l2.37-1.37v-2.72l-2.37,1.37V357l-9.83,5.79V361.6l-2.59,1.49v1.17l-12.6,7.42v-.9Zm26.12-1.23v2.19l-1.91,1.1V372Zm-17.24,8.22v2.19l-1.91,1.11v-2.19Z"/><ellipse class="cls-109" cx="150.39" cy="363.21" rx="10.66" ry="6.16" transform="translate(-239.07 309.74) rotate(-59.69)"/><path class="cls-110" d="M173.56,387.42l-64.62,37.31V424c5.3-9.45,10.76-51.44,16-54.5,6.9-4,11.81,25.62,19.51,21.17s10.48-17.62,16.59-21.14c4.22-2.44,9,15,12.47,17.61Z"/><path class="cls-111" d="M108.73,372.49v2.72l2.37-1.37v-1l11-6.45c-2.19,2.64-4.52,7.29-5.86,13.17l-1,.58a.34.34,0,0,0-.17.29v3a.34.34,0,0,0,.17.29.31.31,0,0,0,.34,0l2.59-1.49a.34.34,0,0,0,.17-.29v-3a.36.36,0,0,0-.17-.3.34.34,0,0,0-.34,0l-.77.45c1.72-7.12,4.64-11.6,6.69-13.44v.79l2.59-1.49v-.6a3.45,3.45,0,0,1,1.43.11c2.24.69,4.09,3.85,5.6,6.94l-.88.51a.32.32,0,0,0-.17.29v3a.34.34,0,0,0,.17.3.33.33,0,0,0,.17,0,.35.35,0,0,0,.17,0l2.59-1.5a.34.34,0,0,0,.16-.29v-3a.34.34,0,0,0-.16-.29.3.3,0,0,0-.34,0l-1.12.64c-1.65-3.35-3.52-6.48-6-7.24a3.75,3.75,0,0,0-1.2-.17l9.4-5.53v1.24l2.37-1.37v-2.72l-2.37,1.37v.69l-9.83,5.79v-1.14l-2.59,1.49v1.17L111.1,372v-.9Zm24.22-.13,1.91-1.11v2.19L133,374.55Zm-17.25,8.23,1.91-1.11v2.19l-1.91,1.11Z"/><path class="cls-112" d="M253.36,441.37c.88.51,1.81,1.09,2.75,1.75,1.67,1.16,1.59,2.87-.17,4l-.25.16a7.3,7.3,0,0,1-6.87.13,7.33,7.33,0,0,0-7.94.05l-1.59,1c-1.68,1.06-1.63,2.74.09,3.73l.15.09a2.44,2.44,0,0,1,1.47,2.27,3,3,0,0,1-1.91,2.19l-1.14.53a7.27,7.27,0,0,1-6.3-.17,6.56,6.56,0,0,0-6.16.13L214,464.57a6.65,6.65,0,0,1-3.46.93,6.72,6.72,0,0,1-3.41-.79c-.31-.2-.55-.34-.8-.48l-.73-.42a2.65,2.65,0,0,1-1.56-2.07,2.52,2.52,0,0,1,1.37-2.14l14.73-9.37.37.21-14.74,9.37a2.25,2.25,0,0,0-1.23,1.92,2.34,2.34,0,0,0,1.34,1.83l.8.45.73.43a6.13,6.13,0,0,0,3.13.76,6,6,0,0,0,3.1-.84L225.13,457a7.28,7.28,0,0,1,6.86-.13,6.59,6.59,0,0,0,5.66.14l1.14-.53a2.65,2.65,0,0,0,1.71-2,2.2,2.2,0,0,0-1.31-2l-.16-.09c-1.92-1.11-2-3-.11-4.16l1.6-1a8.06,8.06,0,0,1,8.63-.06,6.55,6.55,0,0,0,6.17-.12l.26-.16c1.58-1,1.65-2.54.16-3.57-.94-.65-1.86-1.24-2.73-1.74a18.56,18.56,0,0,0-19.54.57l-2.42,1.54a7.28,7.28,0,0,1-6.86.14l-3.39-2,.34-.22,3.39,2a6.53,6.53,0,0,0,6.16-.13l2.42-1.54A19.24,19.24,0,0,1,253.36,441.37Z"/><path class="cls-113" d="M223.7,444.11c.53.28,2.19.69,2.48.16s-.91-1.8-1.44-2.09a1.1,1.1,0,0,0-1,1.93Z"/><path class="cls-114" d="M214.3,442.09c-2.81-1.48.95-8.72,4-6.94s6.46,6.39,6.46,6.39h0a1.53,1.53,0,0,1,.06,1.88,1.46,1.46,0,0,1-1.6,1h0S217.12,443.57,214.3,442.09Z"/><path class="cls-115" d="M193.4,430.57l3.85-7.14,21.13,11.71h0l0,0c1.14.61,1.21,2.71.15,4.69s-2.85,3.06-4,2.44h0Z"/><path class="cls-116" d="M193.42,430.58c1.15.62,2.94-.48,4-2.45s1-4.07-.16-4.69-2.94.48-4,2.45S192.27,430,193.42,430.58Z"/><path class="cls-117" d="M163.46,413.66l3.12-5.78L197.3,423.5h0l0,0c1.15.62,1.22,2.72.15,4.69s-2.85,3.07-4,2.45l0,0h0Z"/><path class="cls-118" d="M163.48,413.67c.93.5,2.38-.39,3.24-2s.8-3.3-.13-3.8-2.38.39-3.24,2S162.55,413.17,163.48,413.67Z"/><path class="cls-119" d="M166.58,411.66c.86-1.6.81-3.3-.12-3.8l-.07,0a1.63,1.63,0,0,1,.31.11c.93.5,1,2.2.12,3.8s-2.24,2.44-3.17,2C164.57,414,165.81,413.09,166.58,411.66Z"/><path class="cls-120" d="M192.09,462.56l26.72-15.93.31-.17a45.5,45.5,0,0,1,6.17-2.61h0c.43-.14.64,0,.53.49a2.3,2.3,0,0,1-.93,1.36h0s-3.95,3.27-6.5,5a2.89,2.89,0,0,1-.43.31l0,0h0l-26.83,16.1Z"/><path class="cls-121" d="M210.53,452.46l12-7.14.14-.08a20.26,20.26,0,0,1,2.77-1.17h0c.19-.07.1.58-.17.82h0s-1.77,1.46-2.92,2.22a1.25,1.25,0,0,1-.19.15h0l-12,7.22Z"/><path class="cls-122" d="M168.35,410.5c-.44.85,6.36,5.31,13,8.81s12.43,5.66,12.87,4.82-4.6-4.37-11.27-7.87S168.79,409.66,168.35,410.5Z"/><rect class="cls-123" x="197.64" y="430.84" width="22.01" height="2.37" rx="1.18" transform="translate(185.38 911.22) rotate(-151.44)"/><rect class="cls-124" x="204.37" y="432.28" width="12.89" height="1.75" rx="0.88" transform="translate(188.92 914.39) rotate(-151.44)"/><path class="cls-125" d="M205.16,430.08a.71.71,0,0,1,.32-.32.55.55,0,0,0-.12.14.88.88,0,0,0,.35,1.19l9.78,5.32a.9.9,0,0,0,.87,0,.88.88,0,0,1-1.07.21l-9.78-5.32A.87.87,0,0,1,205.16,430.08Z"/><path class="cls-126" d="M168.79,409.25l49.33,26.17a2.9,2.9,0,0,1,.35.26,37.1,37.1,0,0,1,6.31,5.86h0a1.53,1.53,0,0,1,.06,1.88,1.46,1.46,0,0,1-1.6,1h0a41.78,41.78,0,0,1-8.15-1.94,1.36,1.36,0,0,1-.53-.16h0L165.72,414.9Z"/><path class="cls-127" d="M216.36,437c-2.5-2-1.36-3.6,1.41-1.38s6.45,5.89,6.45,5.89h0c.42.4.63.72.49.89s-.35.11-1-.27h0S218.86,438.92,216.36,437Z"/><path class="cls-128" d="M215.21,442c-2.61-.78-2.37-1.95.54-1.06s7.05,2.51,7.05,2.51h0c.47.18.74.34.7.46s-.22.13-.84,0h0S217.82,442.74,215.21,442Z"/><polygon class="cls-129" points="133.95 317.13 190.91 284.13 211.63 296.43 211.63 315.85 154.71 348.77 154.71 348.78 154.71 348.77 154.7 348.78 154.7 348.77 133.95 336.54 133.95 317.13"/><g class="cls-40"><polygon class="cls-130" points="154.71 329.47 154.71 348.78 149.12 345.55 149.12 326.13 154.71 329.47"/><polygon class="cls-131" points="154.7 329.47 154.7 348.78 211.63 315.85 211.63 296.43 154.7 329.47"/><polygon class="cls-132" points="211.63 296.43 154.7 329.47 149.12 326.13 206.08 293.13 211.63 296.43"/></g><polygon class="cls-70" points="201.18 318.7 207.74 314.92 207.74 302.07 201.18 305.86 201.18 318.7"/><polygon class="cls-71" points="192.58 323.67 199.14 319.88 199.14 307.04 192.58 310.82 192.58 323.67"/><polygon class="cls-72" points="183.98 328.63 190.54 324.84 190.54 312 183.98 315.79 183.98 328.63"/><polygon class="cls-73" points="175.39 333.59 181.95 329.8 181.95 316.96 175.39 320.75 175.39 333.59"/><polygon class="cls-74" points="166.79 338.56 173.35 334.77 173.35 321.93 166.79 325.71 166.79 338.56"/><polygon class="cls-75" points="158.19 343.52 164.75 339.73 164.75 326.89 158.19 330.68 158.19 343.52"/><path class="cls-133" d="M264.93,468.49,283.13,458c4.09-2.37,6.44-6,6.44-10a10.47,10.47,0,0,0-5.59-9.11l-59.23-34-.33.58,59.22,34a9.78,9.78,0,0,1,5.25,8.52c0,3.75-2.22,7.18-6.1,9.42L264.6,467.9Z"/><circle class="cls-134" cx="246.89" cy="418.03" r="9.94" transform="translate(-99.19 77.54) rotate(-14.9)"/></g></g></g></svg>