<svg xmlns="http://www.w3.org/2000/svg" xmlns:xlink="http://www.w3.org/1999/xlink" viewBox="0 0 659.91 302"><defs><style>.cls-1,.cls-2,.cls-3,.cls-4{opacity:0.35;}.cls-1{fill:url(#New_Gradient_Swatch_copy_8);}.cls-2{fill:url(#New_Gradient_Swatch_copy_10);}.cls-3{fill:url(#linear-gradient);}.cls-4{fill:url(#linear-gradient-2);}</style><linearGradient id="New_Gradient_Swatch_copy_8" x1="98.65" y1="115.28" x2="172.01" y2="115.28" gradientTransform="matrix(0.89, 0.12, 0.12, 0.86, -111.28, 125.49)" gradientUnits="userSpaceOnUse"><stop offset="0.04" stop-color="#ffa98c"/><stop offset="0.32" stop-color="#ffb892"/><stop offset="0.86" stop-color="#fee1a3"/><stop offset="1" stop-color="#feeca8"/></linearGradient><linearGradient id="New_Gradient_Swatch_copy_10" x1="819.46" y1="-200.24" x2="906.9" y2="-200.24" gradientTransform="matrix(0.9, -0.01, 0.25, 0.84, -88.43, 237.81)" gradientUnits="userSpaceOnUse"><stop offset="0.04" stop-color="#9d9eb3"/><stop offset="0.58" stop-color="#d4d1d8"/><stop offset="1" stop-color="#eeebf2"/></linearGradient><linearGradient id="linear-gradient" y1="126.88" x2="347.05" y2="126.88" gradientUnits="userSpaceOnUse"><stop offset="0.04" stop-color="#9f19ab"/><stop offset="0.24" stop-color="#ae25b1"/><stop offset="0.65" stop-color="#d744bf"/><stop offset="1" stop-color="#ff63ce"/></linearGradient><linearGradient id="linear-gradient-2" x1="567.88" y1="108.61" x2="659.91" y2="108.61" xlink:href="#linear-gradient"/></defs><title>svg6</title><g id="Layer_2" data-name="Layer 2"><g id="Layer_1-2" data-name="Layer 1"><path class="cls-1" d="M0,174.4l46.4,41.14a22.75,22.75,0,0,1,1.92,32.1L1.4,300.55c-.45.51-.91,1-1.4,1.45"/><path class="cls-2" d="M659.91,125.8,611.39,94.05a11,11,0,0,1-3.17-15.18L659.83,0"/><polyline class="cls-3" points="0 11.71 347.05 238.84 344.94 242.06 0.02 16.32"/><path class="cls-4" d="M659.91,140.21,568.75,80.55a1.92,1.92,0,0,1-.56-2.66h0a1.93,1.93,0,0,1,2.67-.56l89,58.28"/></g></g></svg>