<svg xmlns="http://www.w3.org/2000/svg" xmlns:xlink="http://www.w3.org/1999/xlink" viewBox="0 0 660.12 786.75"><defs><style>.cls-1,.cls-5,.cls-6{opacity:0.35;}.cls-1{fill:url(#linear-gradient);}.cls-2{fill:url(#linear-gradient-2);}.cls-3{opacity:0.47;fill:url(#linear-gradient-3);}.cls-4{fill:url(#linear-gradient-4);}.cls-5{fill:url(#New_Gradient_Swatch_copy_8);}.cls-6{fill:url(#New_Gradient_Swatch_copy_8-2);}.cls-7{opacity:0.06;fill:url(#linear-gradient-5);}</style><linearGradient id="linear-gradient" x1="697.17" y1="466.19" x2="938.41" y2="124.59" gradientTransform="matrix(1.1, -0.11, -0.11, 1.13, -167.12, 188.45)" gradientUnits="userSpaceOnUse"><stop offset="0.04" stop-color="#9f19ab"/><stop offset="0.24" stop-color="#ae25b1"/><stop offset="0.65" stop-color="#d744bf"/><stop offset="1" stop-color="#ff63ce"/></linearGradient><linearGradient id="linear-gradient-2" x1="1134.71" y1="356.13" x2="1395.8" y2="-13.57" gradientTransform="matrix(-1.03, 0.41, -0.2, -1.11, 1941.27, 129.48)" gradientUnits="userSpaceOnUse"><stop offset="0.04" stop-color="#6b24d6"/><stop offset="0.32" stop-color="#7a1cd0"/><stop offset="0.86" stop-color="#a306c1"/><stop offset="0.98" stop-color="#ad00bd"/></linearGradient><linearGradient id="linear-gradient-3" x1="0" y1="208.45" x2="86.61" y2="208.45" gradientTransform="matrix(1, 0, 0, 1, 0, 0)" xlink:href="#linear-gradient-2"/><linearGradient id="linear-gradient-4" x1="51.35" y1="219.93" x2="274.62" y2="219.93" gradientTransform="matrix(0.95, 0.3, -0.3, 0.95, -37.96, 122.53)" xlink:href="#linear-gradient-2"/><linearGradient id="New_Gradient_Swatch_copy_8" x1="544.56" y1="203.05" x2="571.91" y2="203.05" gradientTransform="matrix(0.75, -0.5, 0.66, 0.56, -100.01, 487.06)" gradientUnits="userSpaceOnUse"><stop offset="0.04" stop-color="#ffa98c"/><stop offset="0.32" stop-color="#ffb892"/><stop offset="0.86" stop-color="#fee1a3"/><stop offset="1" stop-color="#feeca8"/></linearGradient><linearGradient id="New_Gradient_Swatch_copy_8-2" x1="743.22" y1="-101.91" x2="801.89" y2="-101.91" gradientTransform="matrix(0.75, -0.5, 0.66, 0.56, 95.76, 529.5)" xlink:href="#New_Gradient_Swatch_copy_8"/><linearGradient id="linear-gradient-5" x1="480.39" y1="374.27" x2="502.81" y2="374.27" gradientTransform="matrix(0.75, -0.5, 0.66, 0.56, -202.22, 496.65)" xlink:href="#linear-gradient-2"/></defs><title>svg6_1</title><g id="Layer_2" data-name="Layer 2"><g id="Layer_1-2" data-name="Layer 1"><path class="cls-1" d="M659.85,786.75,430.33,583.21A61.11,61.11,0,0,1,425.15,497l234.7-264.67"/><path class="cls-2" d="M659.85,635.79l-148.47-71a61.11,61.11,0,0,1-28.75-81.5l177.49-371"/><path class="cls-3" d="M.21,0C109.83,109.23,116.48,286.37,12.48,403.65h0Q6.4,410.51,0,416.89"/><path class="cls-4" d="M.69,170.74,139.6,402.32A63.08,63.08,0,0,1,118,488.85L0,559.6"/><rect class="cls-5" x="442.68" y="312.72" width="19.4" height="19.4" rx="4.49" transform="translate(327.83 -218.96) rotate(41.57)"/><rect class="cls-6" x="580.77" y="60.33" width="50.79" height="50.79" rx="25.39" transform="translate(209.51 -380.59) rotate(41.57)"/><rect class="cls-7" x="404.2" y="452.18" width="19.4" height="19.4" rx="9.7" transform="translate(410.67 -158.31) rotate(41.57)"/></g></g></svg>